<svg width="28" height="27" viewBox="0 0 28 27" fill="none" xmlns="http://www.w3.org/2000/svg">
<g clip-path="url(#clip0_399:6650)">
<path d="M10.9375 4.00391L20.0547 12.9219C20.3828 13.2383 20.5352 13.5898 20.5352 14C20.5352 14.4102 20.3711 14.7852 20.0547 15.0898L10.9375 23.9961C10.668 24.2539 10.3516 24.3945 9.96484 24.3945C9.17969 24.3945 8.57031 23.7852 8.57031 23.0117C8.57031 22.6367 8.72266 22.2734 8.99219 22.0039L17.207 14.0117L8.99219 5.99609C8.72266 5.72656 8.57031 5.375 8.57031 4.98828C8.57031 4.21484 9.17969 3.60547 9.96484 3.60547C10.3398 3.60547 10.668 3.74609 10.9375 4.00391Z" fill="#1C1C1E"/>
</g>
<defs>
<clipPath id="clip0_399:6650">
<rect width="28" height="28" fill="white" transform="translate(28) rotate(90)"/>
</clipPath>
</defs>
</svg>
