<svg id="Icons" version="1.1" viewBox="0 0 32 32" xml:space="preserve" xmlns="http://www.w3.org/2000/svg" enable-background="new 0 0 32 32"><path d="M23 28c-1.1 0-2.1-.7-2.5-1.8 0-.1 0-.2-.1-.2h-8.9c0 .1 0 .2-.1.2-.3 1.1-1.3 1.8-2.4 1.8-.6 0-1 .4-1 1s.4 1 1 1h14c.6 0 1-.4 1-1s-.4-1-1-1zM27 3H5C3.3 3 2 4.3 2 6v15c0 1.7 1.3 3 3 3h22c1.7 0 3-1.3 3-3V6c0-1.7-1.3-3-3-3zM12 19c-3.3 0-6-2.7-6-6 0-3 2.2-5.4 5-5.9V13c0 .6.4 1 1 1h5.9c-.5 2.8-2.9 5-5.9 5zm1-7V7.1c2.5.4 4.5 2.4 4.9 4.9H13zm12 6h-4c-.6 0-1-.4-1-1s.4-1 1-1h4c.6 0 1 .4 1 1s-.4 1-1 1zm0-4h-4c-.6 0-1-.4-1-1s.4-1 1-1h4c.6 0 1 .4 1 1s-.4 1-1 1zm0-4h-4c-.6 0-1-.4-1-1s.4-1 1-1h4c.6 0 1 .4 1 1s-.4 1-1 1z" fill="#00b9a7" class="fill-000000"></path></svg>