<svg width="25" height="24" viewBox="0 0 25 24" fill="none" xmlns="http://www.w3.org/2000/svg">
<path d="M1.76562 23.1582C2.05859 23.1582 2.36328 23.0527 2.73828 22.8418L8.70312 19.6309L15.1836 23.2637C15.6055 23.498 16.0625 23.6152 16.4961 23.6152C16.9062 23.6152 17.3164 23.5098 17.668 23.3105L23.7969 19.8301C24.5 19.4434 24.8164 18.8809 24.8164 18.0957V2.31055C24.8164 1.44336 24.3359 0.962891 23.4922 0.962891C23.1992 0.962891 22.8945 1.05664 22.5078 1.26758L16.2969 4.72461L9.93359 0.822266C9.57031 0.611328 9.16016 0.494141 8.75 0.494141C8.32812 0.494141 7.90625 0.611328 7.54297 0.822266L1.44922 4.29102C0.757812 4.68945 0.441406 5.25195 0.441406 6.03711V21.7988C0.441406 22.666 0.921875 23.1582 1.76562 23.1582ZM7.94141 17.7676L2.65625 20.6738C2.59766 20.6973 2.53906 20.7324 2.48047 20.7324C2.38672 20.7324 2.32812 20.6621 2.32812 20.5449V6.49414C2.32812 6.21289 2.43359 6.01367 2.71484 5.84961L7.51953 3.03711C7.67188 2.95508 7.80078 2.88477 7.94141 2.80273V17.7676ZM9.82812 17.9551V3.04883C9.94531 3.11914 10.0859 3.18945 10.2031 3.25977L15.4297 6.44727V21.0957C15.2656 21.002 15.0898 20.9199 14.9141 20.8262L9.82812 17.9551ZM17.3164 21.3066V6.33008L22.6016 3.44727C22.6602 3.41211 22.7188 3.38867 22.7656 3.38867C22.8711 3.38867 22.9297 3.45898 22.9297 3.57617V17.627C22.9297 17.9199 22.8125 18.1191 22.543 18.2832L17.8438 21.0137C17.668 21.1191 17.4922 21.2246 17.3164 21.3066Z" fill="black"/>
</svg>
