<svg width="21" height="20" viewBox="0 0 21 20" fill="none" xmlns="http://www.w3.org/2000/svg">
<path d="M1.26758 19.3583C1.51172 19.3583 1.76562 19.2704 2.07812 19.0946L7.04883 16.4188L12.4492 19.4462C12.8008 19.6415 13.1816 19.7391 13.543 19.7391C13.8848 19.7391 14.2266 19.6512 14.5195 19.4852L19.627 16.5848C20.2129 16.2626 20.4766 15.7938 20.4766 15.1395V1.98523C20.4766 1.26257 20.0762 0.862183 19.373 0.862183C19.1289 0.862183 18.875 0.940308 18.5527 1.11609L13.377 3.99695L8.07422 0.744995C7.77148 0.569214 7.42969 0.471558 7.08789 0.471558C6.73633 0.471558 6.38477 0.569214 6.08203 0.744995L1.00391 3.63562C0.427734 3.96765 0.164062 4.4364 0.164062 5.0907V18.2255C0.164062 18.9481 0.564453 19.3583 1.26758 19.3583ZM6.41406 14.8661L2.00977 17.288C1.96094 17.3075 1.91211 17.3368 1.86328 17.3368C1.78516 17.3368 1.73633 17.2782 1.73633 17.1805V5.47156C1.73633 5.23718 1.82422 5.07117 2.05859 4.93445L6.0625 2.5907C6.18945 2.52234 6.29688 2.46375 6.41406 2.39539V14.8661ZM7.98633 15.0223V2.60046C8.08398 2.65906 8.20117 2.71765 8.29883 2.77625L12.6543 5.4325V17.6395C12.5176 17.5614 12.3711 17.493 12.2246 17.4149L7.98633 15.0223ZM14.2266 17.8153V5.33484L18.6309 2.9325C18.6797 2.9032 18.7285 2.88367 18.7676 2.88367C18.8555 2.88367 18.9043 2.94226 18.9043 3.03992V14.7489C18.9043 14.993 18.8066 15.1591 18.582 15.2958L14.666 17.5712C14.5195 17.6591 14.373 17.7469 14.2266 17.8153Z" fill="black"/>
</svg>
