<svg width="28" height="28" viewBox="0 0 28 28" fill="none" xmlns="http://www.w3.org/2000/svg">
<g clip-path="url(#clip0_749_8229)">
<g clip-path="url(#clip1_749_8229)">
<path d="M17.0742 22.9844C17.332 23.2422 17.6484 23.3828 18.0234 23.3828C18.7969 23.3828 19.3945 22.7852 19.3945 22.0234C19.3945 21.6484 19.2305 21.3086 18.9727 21.0391L10.7344 13L18.9727 4.96094C19.2422 4.70312 19.3945 4.35156 19.3945 3.97656C19.3945 3.22656 18.7969 2.62891 18.0234 2.62891C17.6484 2.62891 17.332 2.75781 17.0742 3.01562L7.94531 11.9453C7.62891 12.2383 7.46484 12.6016 7.46484 13C7.46484 13.3984 7.62891 13.75 7.93359 14.0547L17.0742 22.9844Z" fill="white"/>
</g>
</g>
<defs>
<clipPath id="clip0_749_8229">
<rect width="28" height="28" fill="white" transform="translate(28 28) rotate(180)"/>
</clipPath>
<clipPath id="clip1_749_8229">
<rect width="28" height="28" fill="white" transform="translate(0 27) rotate(-90)"/>
</clipPath>
</defs>
</svg>
