<svg width="28" height="28" viewBox="0 0 28 28" fill="none" xmlns="http://www.w3.org/2000/svg">
<path d="M5.49805 21.9951C5.09961 22.3936 5.08789 23.0732 5.49805 23.4717C5.9082 23.8701 6.58789 23.8701 6.98633 23.4717L14.4863 15.9717L21.9863 23.4717C22.3848 23.8701 23.0762 23.8818 23.4746 23.4717C23.873 23.0615 23.873 22.3936 23.4746 21.9951L15.9746 14.4834L23.4746 6.9834C23.873 6.58496 23.8848 5.90527 23.4746 5.50684C23.0645 5.09668 22.3848 5.09668 21.9863 5.50684L14.4863 13.0068L6.98633 5.50684C6.58789 5.09668 5.89648 5.08496 5.49805 5.50684C5.09961 5.91699 5.09961 6.58496 5.49805 6.9834L12.998 14.4834L5.49805 21.9951Z" fill="#00B9A7"/>
</svg>
