<svg width="20" height="22" viewBox="0 0 20 22" fill="none" xmlns="http://www.w3.org/2000/svg">
<g clip-path="url(#clip0_551_1972)">
<g clip-path="url(#clip1_551_1972)">
<path d="M7.76758 5.12164L13.8457 11.067C14.0645 11.2779 14.166 11.5123 14.166 11.7857C14.166 12.0591 14.0566 12.3091 13.8457 12.5123L7.76758 18.4498C7.58789 18.6216 7.37695 18.7154 7.11914 18.7154C6.5957 18.7154 6.18945 18.3091 6.18945 17.7935C6.18945 17.5435 6.29101 17.3013 6.4707 17.1216L11.9473 11.7935L6.4707 6.44977C6.29102 6.27008 6.18945 6.0357 6.18945 5.77789C6.18945 5.26227 6.5957 4.85602 7.11914 4.85602C7.36914 4.85602 7.58789 4.94977 7.76758 5.12164Z" fill="#1C1C1E"/>
</g>
</g>
<defs>
<clipPath id="clip0_551_1972">
<rect width="20" height="22" fill="white"/>
</clipPath>
<clipPath id="clip1_551_1972">
<rect width="22" height="20" fill="white" transform="translate(20 0.785706) rotate(90)"/>
</clipPath>
</defs>
</svg>
