<svg width="30" height="30" viewBox="0 0 30 30" fill="none" xmlns="http://www.w3.org/2000/svg">
<path d="M22.6 5.18182V5.28182H22.7H23.8C24.9556 5.28182 25.9 6.21965 25.9 7.36364V24.8182C25.9 25.9622 24.9556 26.9 23.8 26.9H6.2C5.04444 26.9 4.1 25.9622 4.1 24.8182V7.36364C4.1 6.21965 5.04444 5.28182 6.2 5.28182H7.3H7.4V5.18182V3.1H9.4V5.18182V5.28182H9.5H20.5H20.6V5.18182V3.1H22.6V5.18182ZM23.8 24.9182H23.9V24.8182V10.6364V10.5364H23.8H6.2H6.1V10.6364V24.8182V24.9182H6.2H23.8Z" fill="#00B9A7" stroke="white" stroke-width="0.2"/>
</svg>
