<svg width="24" height="27" viewBox="0 0 24 27" fill="none" xmlns="http://www.w3.org/2000/svg">
<path d="M20.75 3.75H19.5V1.25H17V3.75H7V1.25H4.5V3.75H3.25C1.8625 3.75 0.75 4.875 0.75 6.25V23.75C0.75 25.125 1.8625 26.25 3.25 26.25H20.75C22.125 26.25 23.25 25.125 23.25 23.75V6.25C23.25 4.875 22.125 3.75 20.75 3.75ZM12 7.5C14.075 7.5 15.75 9.175 15.75 11.25C15.75 13.325 14.075 15 12 15C9.925 15 8.25 13.325 8.25 11.25C8.25 9.175 9.925 7.5 12 7.5ZM19.5 22.5H4.5V21.25C4.5 18.75 9.5 17.375 12 17.375C14.5 17.375 19.5 18.75 19.5 21.25V22.5Z" stroke="#979797" stroke-width="1.5"/>
</svg>
