<svg width="19" height="19" viewBox="0 0 19 19" fill="none" xmlns="http://www.w3.org/2000/svg">
<path d="M0.497986 18.4717C0.908142 18.8701 1.58783 18.8701 1.98627 18.4717L9.48627 10.9717L16.9863 18.4717C17.3847 18.8701 18.0761 18.8818 18.4745 18.4717C18.873 18.0615 18.873 17.3936 18.4745 16.9951L10.9745 9.4834L18.4745 1.9834C18.873 1.58496 18.8847 0.905273 18.4745 0.506836C18.0644 0.0966797 17.3847 0.0966797 16.9863 0.506836L9.48627 8.00684L1.98627 0.506836C1.58783 0.0966797 0.896423 0.0849609 0.497986 0.506836C0.0995483 0.916992 0.0995483 1.58496 0.497986 1.9834L7.99799 9.4834L0.497986 16.9951C0.0995483 17.3936 0.0878296 18.0732 0.497986 18.4717Z" fill="#00B9A7"/>
</svg>
