<svg width="13" height="22" viewBox="0 0 13 22" fill="none" xmlns="http://www.w3.org/2000/svg">
<path d="M10.0625 20.9961L0.945312 12.0781C0.617187 11.7617 0.464843 11.4102 0.464843 11C0.464843 10.5898 0.628906 10.2148 0.945312 9.91016L10.0625 1.00391C10.332 0.746093 10.6484 0.605468 11.0352 0.605468C11.8203 0.605468 12.4297 1.21484 12.4297 1.98828C12.4297 2.36328 12.2773 2.72656 12.0078 2.99609L3.79297 10.9883L12.0078 19.0039C12.2773 19.2734 12.4297 19.625 12.4297 20.0117C12.4297 20.7852 11.8203 21.3945 11.0352 21.3945C10.6602 21.3945 10.332 21.2539 10.0625 20.9961Z" fill="black"/>
</svg>
