<svg width="28" height="28" viewBox="0 0 28 28" fill="none" xmlns="http://www.w3.org/2000/svg">
<path d="M21 18.76C20.1133 18.76 19.32 19.11 18.7133 19.6583L10.395 14.8167C10.4533 14.5483 10.5 14.28 10.5 14C10.5 13.72 10.4533 13.4517 10.395 13.1833L18.62 8.38833C19.25 8.97166 20.0783 9.33333 21 9.33333C22.9367 9.33333 24.5 7.76999 24.5 5.83333C24.5 3.89666 22.9367 2.33333 21 2.33333C19.0633 2.33333 17.5 3.89666 17.5 5.83333C17.5 6.11333 17.5467 6.38166 17.605 6.64999L9.38 11.445C8.75 10.8617 7.92167 10.5 7 10.5C5.06333 10.5 3.5 12.0633 3.5 14C3.5 15.9367 5.06333 17.5 7 17.5C7.92167 17.5 8.75 17.1383 9.38 16.555L17.6867 21.4083C17.6283 21.6533 17.5933 21.91 17.5933 22.1667C17.5933 24.045 19.1217 25.5733 21 25.5733C22.8783 25.5733 24.4067 24.045 24.4067 22.1667C24.4067 20.2883 22.8783 18.76 21 18.76Z" fill="black"/>
</svg>
