<svg width="21" height="17" viewBox="0 0 21 17" fill="none" xmlns="http://www.w3.org/2000/svg">
<g clip-path="url(#clip0_852_3059)">
<g clip-path="url(#clip1_852_3059)">
<path d="M8.07422 2.54412C7.90234 2.37224 7.69141 2.27849 7.44141 2.27849C6.92578 2.27849 6.52734 2.67693 6.52734 3.18474C6.52734 3.43474 6.63672 3.66131 6.80859 3.84099L12.3008 9.20037L6.80859 14.5597C6.62891 14.7316 6.52734 14.966 6.52734 15.216C6.52734 15.716 6.92578 16.1144 7.44141 16.1144C7.69141 16.1144 7.90234 16.0285 8.07422 15.8566L14.1602 9.90349C14.3711 9.70818 14.4805 9.46599 14.4805 9.20037C14.4805 8.93474 14.3711 8.70037 14.168 8.49724L8.07422 2.54412Z" fill="#1C1C1E"/>
</g>
</g>
<defs>
<clipPath id="clip0_852_3059">
<rect width="19.7661" height="15.4286" fill="white" transform="translate(0.514648 0.935059)"/>
</clipPath>
<clipPath id="clip1_852_3059">
<rect width="15.4286" height="19.7661" fill="white" transform="translate(20.2803 1.48608) rotate(90)"/>
</clipPath>
</defs>
</svg>
