<svg width="14" height="15" viewBox="0 0 14 15" fill="none" xmlns="http://www.w3.org/2000/svg">
<path d="M6.97705 14.6529C10.7915 14.6529 13.9497 11.4879 13.9497 7.68024C13.9497 3.86578 10.7847 0.707581 6.97021 0.707581C3.1626 0.707581 0.00439453 3.86578 0.00439453 7.68024C0.00439453 11.4879 3.16943 14.6529 6.97705 14.6529ZM6.97705 13.4908C3.75049 13.4908 1.17334 10.9068 1.17334 7.68024C1.17334 4.45367 3.74365 1.86969 6.97021 1.86969C10.1968 1.86969 12.7808 4.45367 12.7876 7.68024C12.7944 10.9068 10.2036 13.4908 6.97705 13.4908ZM3.40186 8.41852H6.97021C7.23682 8.41852 7.44873 8.21344 7.44873 7.94V3.33258C7.44873 3.06598 7.23682 2.8609 6.97021 2.8609C6.70361 2.8609 6.49854 3.06598 6.49854 3.33258V7.46832H3.40186C3.12842 7.46832 2.92334 7.6734 2.92334 7.94C2.92334 8.21344 3.12842 8.41852 3.40186 8.41852Z" fill="black"/>
</svg>
