<svg width="20" height="19" viewBox="0 0 20 19" fill="none" xmlns="http://www.w3.org/2000/svg">
<path d="M10 18.7334C14.9658 18.7334 19.0791 14.6289 19.0791 9.6543C19.0791 4.68848 14.9658 0.575195 9.99121 0.575195C5.02539 0.575195 0.920898 4.68848 0.920898 9.6543C0.920898 14.6289 5.03418 18.7334 10 18.7334ZM4.70898 4.12598C5.58789 3.29102 6.65137 2.64941 7.83789 2.29785C7.21387 2.92188 6.68652 3.80078 6.29102 4.87305C5.67578 4.67969 5.14844 4.4248 4.70898 4.12598ZM12.1709 2.30664C13.3486 2.6582 14.4121 3.29102 15.2822 4.12598C14.8516 4.43359 14.3242 4.67969 13.709 4.88184C13.3135 3.80078 12.7861 2.92188 12.1709 2.30664ZM10.6152 2.58789C11.3447 2.93945 12.0127 3.88867 12.4873 5.18066C11.9072 5.28613 11.2832 5.34766 10.6152 5.37402V2.58789ZM7.5127 5.18066C7.99609 3.88867 8.65527 2.93945 9.38477 2.58789V5.37402C8.7168 5.34766 8.09277 5.28613 7.5127 5.18066ZM2.35352 9.03906C2.47656 7.54492 3.03906 6.16504 3.90039 5.03125C4.43652 5.42676 5.13086 5.76953 5.93945 6.02441C5.71094 6.93848 5.56152 7.95801 5.51758 9.03906H2.35352ZM14.4824 9.03906C14.4385 7.95801 14.2891 6.93848 14.0605 6.02441C14.8691 5.76953 15.5635 5.43555 16.0908 5.03125C16.9609 6.16504 17.5234 7.54492 17.6465 9.03906H14.4824ZM6.77441 9.03906C6.81836 8.08105 6.9502 7.16699 7.15234 6.34082C7.85547 6.48145 8.60254 6.56934 9.38477 6.60449V9.03906H6.77441ZM10.6152 9.03906V6.60449C11.3975 6.56934 12.1445 6.48145 12.8477 6.34082C13.0498 7.16699 13.1816 8.08105 13.2256 9.03906H10.6152ZM2.35352 10.2695H5.51758C5.56152 11.3682 5.71094 12.3965 5.93945 13.3193C5.13965 13.5742 4.4541 13.9082 3.92676 14.3037C3.04785 13.1611 2.47656 11.7725 2.35352 10.2695ZM6.77441 10.2695H9.38477V12.748C8.61133 12.7832 7.85547 12.8711 7.16113 13.0029C6.9502 12.168 6.80957 11.2363 6.77441 10.2695ZM10.6152 12.748V10.2695H13.2256C13.1904 11.2363 13.0498 12.168 12.8389 13.0029C12.1445 12.8711 11.3975 12.7832 10.6152 12.748ZM14.0605 13.3193C14.2979 12.3965 14.4385 11.3682 14.4824 10.2695H17.6465C17.5234 11.7725 16.9521 13.1611 16.0732 14.3037C15.5459 13.9082 14.8604 13.5742 14.0605 13.3193ZM10.6152 13.9785C11.2744 14.0049 11.8984 14.0664 12.4697 14.1719C11.9951 15.4375 11.3359 16.3779 10.6152 16.7207V13.9785ZM7.53027 14.1719C8.10156 14.0664 8.72559 14.0049 9.38477 13.9785V16.7207C8.66406 16.3779 8.00488 15.4375 7.53027 14.1719ZM4.73535 15.209C5.16602 14.9102 5.69336 14.6641 6.2998 14.4707C6.69531 15.5254 7.21387 16.3867 7.82031 17.002C6.66016 16.6504 5.60547 16.0264 4.73535 15.209ZM13.7002 14.4707C14.3066 14.6641 14.834 14.9102 15.2646 15.209C14.3945 16.0264 13.3398 16.6504 12.1797 17.002C12.7861 16.3867 13.3047 15.5254 13.7002 14.4707Z" fill="black"/>
</svg>
