<svg width="30" height="30" viewBox="0 0 30 30" fill="none" xmlns="http://www.w3.org/2000/svg">
<path d="M10.2 27C11.3046 27 12.2 26.1046 12.2 25V20.1765C12.2 19.0719 13.0954 18.1765 14.2 18.1765H15.8C16.9046 18.1765 17.8 19.0719 17.8 20.1765V25C17.8 26.1046 18.6954 27 19.8 27H22.8C23.9046 27 24.8 26.1046 24.8 25V16.4307C24.8 15.7705 25.3352 15.2353 25.9954 15.2353V15.2353C27.0767 15.2353 27.6024 13.914 26.8166 13.1712L16.374 3.29891C15.603 2.57005 14.397 2.57005 13.626 3.29892L3.18335 13.1712C2.39763 13.914 2.92333 15.2353 4.00458 15.2353V15.2353C4.66479 15.2353 5.2 15.7705 5.2 16.4307V25C5.2 26.1046 6.09543 27 7.2 27H10.2Z" stroke="#979797" stroke-width="1.5"/>
</svg>
