<svg width="16" height="29" viewBox="0 0 16 29" fill="none" xmlns="http://www.w3.org/2000/svg">
<path d="M2.69531 23.1758C3.55078 23.1758 4.23047 22.4961 4.23047 21.6406C4.23047 20.7734 3.55078 20.1055 2.69531 20.1055C1.82812 20.1055 1.14844 20.7734 1.14844 21.6406C1.14844 22.4961 1.82812 23.1758 2.69531 23.1758ZM8.28594 23.1758C9.14141 23.1758 9.82109 22.4961 9.82109 21.6406C9.82109 20.7734 9.14141 20.1055 8.28594 20.1055C7.41875 20.1055 6.73906 20.7734 6.73906 21.6406C6.73906 22.4961 7.41875 23.1758 8.28594 23.1758ZM13.8766 23.1758C14.732 23.1758 15.4117 22.4961 15.4117 21.6406C15.4117 20.7734 14.732 20.1055 13.8766 20.1055C13.0094 20.1055 12.3297 20.7734 12.3297 21.6406C12.3297 22.4961 13.0094 23.1758 13.8766 23.1758Z" fill="black"/>
</svg>
