<svg width="28" height="28" viewBox="0 0 28 28" fill="none" xmlns="http://www.w3.org/2000/svg">
<g clip-path="url(#clip0_798_2158)">
<path d="M2.76575 25.1582C3.05872 25.1582 3.3634 25.0527 3.7384 24.8418L9.70325 21.6309L16.1837 25.2637C16.6056 25.498 17.0626 25.6152 17.4962 25.6152C17.9064 25.6152 18.3165 25.5098 18.6681 25.3105L24.797 21.8301C25.5001 21.4434 25.8165 20.8809 25.8165 20.0957V4.31055C25.8165 3.44336 25.3361 2.96289 24.4923 2.96289C24.1993 2.96289 23.8947 3.05664 23.5079 3.26758L17.297 6.72461L10.9337 2.82227C10.5704 2.61133 10.1603 2.49414 9.75012 2.49414C9.32825 2.49414 8.90637 2.61133 8.54309 2.82227L2.44934 6.29102C1.75793 6.68945 1.44153 7.25195 1.44153 8.03711V23.7988C1.44153 24.666 1.922 25.1582 2.76575 25.1582ZM8.94153 19.7676L3.65637 22.6738C3.59778 22.6973 3.53918 22.7324 3.48059 22.7324C3.38684 22.7324 3.32825 22.6621 3.32825 22.5449V8.49414C3.32825 8.21289 3.43372 8.01367 3.71497 7.84961L8.51965 5.03711C8.672 4.95508 8.8009 4.88477 8.94153 4.80273V19.7676ZM10.8282 19.9551V5.04883C10.9454 5.11914 11.0861 5.18945 11.2032 5.25977L16.4298 8.44727V23.0957C16.2657 23.002 16.09 22.9199 15.9142 22.8262L10.8282 19.9551ZM18.3165 23.3066V8.33008L23.6017 5.44727C23.6603 5.41211 23.7189 5.38867 23.7657 5.38867C23.8712 5.38867 23.9298 5.45898 23.9298 5.57617V19.627C23.9298 19.9199 23.8126 20.1191 23.5431 20.2832L18.8439 23.0137C18.6681 23.1191 18.4923 23.2246 18.3165 23.3066Z" fill="black"/>
</g>
<defs>
<clipPath id="clip0_798_2158">
<rect width="28" height="28" fill="white"/>
</clipPath>
</defs>
</svg>
