<svg width="16" height="15" viewBox="0 0 16 15" fill="none" xmlns="http://www.w3.org/2000/svg">
<path d="M1.63184 13.9791C1.80273 13.9791 1.98047 13.9175 2.19922 13.7945L5.67871 11.9214L9.45898 14.0406C9.70508 14.1773 9.97168 14.2457 10.2246 14.2457C10.4639 14.2457 10.7031 14.1841 10.9082 14.0679L14.4834 12.0377C14.8936 11.8121 15.0781 11.4839 15.0781 11.0259V1.81793C15.0781 1.31207 14.7979 1.0318 14.3057 1.0318C14.1348 1.0318 13.957 1.08649 13.7314 1.20953L10.1084 3.22614L6.39648 0.949768C6.18457 0.826721 5.94531 0.758362 5.70605 0.758362C5.45996 0.758362 5.21387 0.826721 5.00195 0.949768L1.44727 2.97321C1.04395 3.20563 0.859375 3.53375 0.859375 3.99176V13.1861C0.859375 13.692 1.13965 13.9791 1.63184 13.9791ZM5.23438 10.8345L2.15137 12.5298C2.11719 12.5435 2.08301 12.564 2.04883 12.564C1.99414 12.564 1.95996 12.523 1.95996 12.4547V4.25836C1.95996 4.0943 2.02148 3.97809 2.18555 3.88239L4.98828 2.24176C5.07715 2.19391 5.15234 2.15289 5.23438 2.10504V10.8345ZM6.33496 10.9439V2.2486C6.40332 2.28961 6.48535 2.33063 6.55371 2.37164L9.60254 4.23102V12.7759C9.50684 12.7213 9.4043 12.6734 9.30176 12.6187L6.33496 10.9439ZM10.7031 12.899V4.16266L13.7861 2.48102C13.8203 2.46051 13.8545 2.44684 13.8818 2.44684C13.9434 2.44684 13.9775 2.48785 13.9775 2.55621V10.7525C13.9775 10.9234 13.9092 11.0396 13.752 11.1353L11.0107 12.7281C10.9082 12.7896 10.8057 12.8511 10.7031 12.899Z" fill="black"/>
</svg>
