<svg width="22" height="22" viewBox="0 0 22 22" fill="none" xmlns="http://www.w3.org/2000/svg">
<path d="M8.35678 6.77372L8.35686 6.77369L8.35343 6.76333C8.00835 5.71874 7.82129 4.59814 7.82129 3.42859C7.82129 2.46438 7.0355 1.67859 6.07129 1.67859H2.57129C1.60708 1.67859 0.821289 2.46438 0.821289 3.42859C0.821289 13.2328 8.76708 21.1786 18.5713 21.1786C19.5355 21.1786 20.3213 20.3928 20.3213 19.4286V15.9386C20.3213 14.9744 19.5355 14.1886 18.5713 14.1886C17.4126 14.1886 16.2832 14.0018 15.2399 13.6575C14.6192 13.4467 13.9216 13.6076 13.451 14.0783L11.6448 15.8845C9.32842 14.5856 7.40521 12.6686 6.11444 10.3561L7.92162 8.54892C8.40784 8.0627 8.54684 7.37843 8.35678 6.77372Z" stroke="black" stroke-width="1.5"/>
</svg>
