<svg width="24" height="17" viewBox="0 0 24 17" fill="none" xmlns="http://www.w3.org/2000/svg">
<path d="M13.0547 4.68164H14.5547L14.5547 4.67549L13.0547 4.68164ZM3.35156 5.38477H4.85158L4.85155 5.37772L3.35156 5.38477ZM8.18555 16.7578V18.2578H11.065L9.41477 15.8982L8.18555 16.7578ZM10.2422 11.1943L11.1703 12.3727L12.8204 11.0731L11.0556 9.93406L10.2422 11.1943ZM16.5967 10.0752C19.4626 10.0752 21.6475 7.58113 21.6475 4.66406H18.6475C18.6475 6.1591 17.5803 7.0752 16.5967 7.0752V10.0752ZM21.6475 4.66406C21.6475 1.75562 19.4126 -0.641602 16.5967 -0.641602V2.3584C17.6128 2.3584 18.6475 3.26586 18.6475 4.66406H21.6475ZM16.5967 -0.641602C13.7816 -0.641602 11.5428 1.79157 11.5547 4.68779L14.5547 4.67549C14.549 3.28265 15.5973 2.3584 16.5967 2.3584V-0.641602ZM11.5547 4.68164C11.5547 7.58074 13.7304 10.0752 16.5967 10.0752V7.0752C15.6134 7.0752 14.5547 6.15949 14.5547 4.68164H11.5547ZM6.43652 10.2773C9.05991 10.2773 11.0303 7.9904 11.0303 5.36719H8.03027C8.03027 6.57601 7.17056 7.27734 6.43652 7.27734V10.2773ZM11.0303 5.36719C11.0303 2.7257 8.9923 0.553711 6.43652 0.553711V3.55371C7.20302 3.55371 8.03027 4.24696 8.03027 5.36719H11.0303ZM6.43652 0.553711C3.86893 0.553711 1.83925 2.76589 1.85158 5.39181L4.85155 5.37772C4.8463 4.2595 5.68185 3.55371 6.43652 3.55371V0.553711ZM1.85156 5.38477C1.85156 7.9928 3.82414 10.2773 6.43652 10.2773V7.27734C5.70906 7.27734 4.85156 6.5736 4.85156 5.38477H1.85156ZM1.59375 18.2578H8.18555V15.2578H1.59375V18.2578ZM9.41477 15.8982C9.35718 15.8158 9.2125 15.4112 9.52163 14.583C9.80709 13.8182 10.389 12.9881 11.1703 12.3727L9.31407 10.0159C8.10906 10.965 7.19242 12.2443 6.71104 13.5339C6.25332 14.7602 6.07348 16.3551 6.95632 17.6175L9.41477 15.8982ZM11.0556 9.93406C9.86127 9.16315 8.32432 8.61328 6.43652 8.61328V11.6133C7.71279 11.6133 8.68952 11.9775 9.42874 12.4546L11.0556 9.93406ZM6.43652 8.61328C1.82159 8.61328 -1.53223 12.0411 -1.53223 15.3867H1.46777C1.46777 13.9687 3.19404 11.6133 6.43652 11.6133V8.61328ZM-1.53223 15.3867C-1.53223 16.0595 -1.35871 16.8871 -0.671545 17.51C-0.0175954 18.1027 0.829909 18.2578 1.59375 18.2578V15.2578C1.39664 15.2578 1.29477 15.2363 1.25836 15.2257C1.22831 15.217 1.27505 15.2254 1.34318 15.2872C1.37576 15.3167 1.40459 15.3508 1.42778 15.3865C1.45058 15.4217 1.46323 15.4511 1.46953 15.469C1.48073 15.5007 1.46777 15.4837 1.46777 15.3867H-1.53223ZM11.1211 18.249H22.0723V15.249H11.1211V18.249ZM22.0723 18.249C22.8855 18.249 23.7527 18.1383 24.442 17.6639C25.2632 17.0988 25.5234 16.2517 25.5234 15.501H22.5234C22.5234 15.553 22.5149 15.51 22.5543 15.4222C22.6006 15.3194 22.6751 15.2381 22.7413 15.1925C22.7927 15.1572 22.7917 15.1759 22.6743 15.2011C22.5571 15.2262 22.3654 15.249 22.0723 15.249V18.249ZM25.5234 15.501C25.5234 13.7826 24.4787 12.0525 22.9708 10.8109C21.4157 9.53048 19.2223 8.63086 16.5967 8.63086V11.6309C18.5238 11.6309 20.0438 12.2869 21.0639 13.1269C22.1311 14.0056 22.5234 14.9606 22.5234 15.501H25.5234ZM16.5967 8.63086C13.9672 8.63086 11.7734 9.53015 10.2188 10.8113C8.71093 12.0539 7.66992 13.784 7.66992 15.501H10.6699C10.6699 14.9591 11.0615 14.0042 12.1267 13.1265C13.145 12.2872 14.6646 11.6309 16.5967 11.6309V8.63086ZM7.66992 15.501C7.66992 16.2517 7.93021 17.0988 8.75133 17.6639C9.44063 18.1383 10.3079 18.249 11.1211 18.249V15.249C10.828 15.249 10.6362 15.2262 10.5191 15.2011C10.4017 15.1759 10.4007 15.1572 10.452 15.1925C10.5182 15.2381 10.5928 15.3194 10.639 15.4222C10.6785 15.51 10.6699 15.553 10.6699 15.501H7.66992Z" fill="black"/>
</svg>
