<svg width="20" height="22" viewBox="0 0 20 22" fill="none" xmlns="http://www.w3.org/2000/svg">
<path d="M2.5 5.5H4.16667H17.5" stroke="black" stroke-width="1.5" stroke-linecap="round" stroke-linejoin="round"/>
<path d="M6.6665 5.49998V3.66665C6.6665 3.18042 6.8421 2.7141 7.15466 2.37028C7.46722 2.02647 7.89114 1.83331 8.33317 1.83331H11.6665C12.1085 1.83331 12.5325 2.02647 12.845 2.37028C13.1576 2.7141 13.3332 3.18042 13.3332 3.66665V5.49998M15.8332 5.49998V18.3333C15.8332 18.8195 15.6576 19.2859 15.345 19.6297C15.0325 19.9735 14.6085 20.1666 14.1665 20.1666H5.83317C5.39114 20.1666 4.96722 19.9735 4.65466 19.6297C4.3421 19.2859 4.1665 18.8195 4.1665 18.3333V5.49998H15.8332Z" stroke="black" stroke-width="1.5" stroke-linecap="round" stroke-linejoin="round"/>
<path d="M8.3335 10.0833V15.5833" stroke="black" stroke-width="1.5" stroke-linecap="round" stroke-linejoin="round"/>
<path d="M11.6665 10.0833V15.5833" stroke="black" stroke-width="1.5" stroke-linecap="round" stroke-linejoin="round"/>
</svg>
