<?xml version="1.0" ?><svg id="Icons" style="enable-background:new 0 0 32 32;" version="1.1" viewBox="0 0 32 32" xml:space="preserve" xmlns="http://www.w3.org/2000/svg" xmlns:xlink="http://www.w3.org/1999/xlink"><style type="text/css">
	.st0{fill:none;stroke:#000000;stroke-width:2;stroke-linecap:round;stroke-linejoin:round;stroke-miterlimit:10;}
</style><g><path d="M23,28c-1.1,0-2.1-0.7-2.5-1.8c0-0.1,0-0.2-0.1-0.2h-8.9c0,0.1,0,0.2-0.1,0.2C11.1,27.3,10.1,28,9,28c-0.6,0-1,0.4-1,1   s0.4,1,1,1h14c0.6,0,1-0.4,1-1S23.6,28,23,28z"/></g><path d="M27,3H5C3.3,3,2,4.3,2,6v15c0,1.7,1.3,3,3,3h6.9h8.1H27c1.7,0,3-1.3,3-3V6C30,4.3,28.7,3,27,3z M12,19c-3.3,0-6-2.7-6-6  c0-3,2.2-5.4,5-5.9V13c0,0.6,0.4,1,1,1h5.9C17.4,16.8,15,19,12,19z M13,12V7.1c2.5,0.4,4.5,2.4,4.9,4.9H13z M25,18h-4  c-0.6,0-1-0.4-1-1s0.4-1,1-1h4c0.6,0,1,0.4,1,1S25.6,18,25,18z M25,14h-4c-0.6,0-1-0.4-1-1s0.4-1,1-1h4c0.6,0,1,0.4,1,1  S25.6,14,25,14z M25,10h-4c-0.6,0-1-0.4-1-1s0.4-1,1-1h4c0.6,0,1,0.4,1,1S25.6,10,25,10z"/></svg>