<svg width="28" height="28" viewBox="0 0 28 28" fill="none" xmlns="http://www.w3.org/2000/svg">
<path d="M11.707 20.4297C13.6641 20.4297 15.4688 19.7969 16.9453 18.7422L22.5 24.2969C22.7578 24.5547 23.0977 24.6836 23.4609 24.6836C24.2227 24.6836 24.7617 24.0977 24.7617 23.3477C24.7617 22.9961 24.6445 22.6562 24.3867 22.4102L18.8672 16.8789C20.0273 15.3555 20.7188 13.4688 20.7188 11.418C20.7188 6.46094 16.6641 2.40625 11.707 2.40625C6.76172 2.40625 2.69531 6.44922 2.69531 11.418C2.69531 16.375 6.75 20.4297 11.707 20.4297ZM11.707 18.4844C7.83984 18.4844 4.64062 15.2852 4.64062 11.418C4.64062 7.55078 7.83984 4.35156 11.707 4.35156C15.5742 4.35156 18.7734 7.55078 18.7734 11.418C18.7734 15.2852 15.5742 18.4844 11.707 18.4844Z" fill="black"/>
</svg>
