<svg width="28" height="28" viewBox="0 0 28 28" fill="none" xmlns="http://www.w3.org/2000/svg">
<g clip-path="url(#clip0_399:4699)">
<g clip-path="url(#clip1_399:4699)">
<path d="M11.2812 6.66992L18.8789 14.1016C19.1523 14.3652 19.2793 14.6582 19.2793 15C19.2793 15.3418 19.1426 15.6543 18.8789 15.9082L11.2812 23.3301C11.0566 23.5449 10.793 23.6621 10.4707 23.6621C9.81641 23.6621 9.30859 23.1543 9.30859 22.5098C9.30859 22.1973 9.43555 21.8945 9.66016 21.6699L16.5059 15.0098L9.66016 8.33008C9.43555 8.10547 9.30859 7.8125 9.30859 7.49023C9.30859 6.8457 9.81641 6.33789 10.4707 6.33789C10.7832 6.33789 11.0566 6.45508 11.2812 6.66992Z" fill="#1C1C1E"/>
</g>
</g>
<defs>
<clipPath id="clip0_399:4699">
<rect width="28" height="28" fill="white"/>
</clipPath>
<clipPath id="clip1_399:4699">
<rect width="28" height="28" fill="white" transform="translate(28 1) rotate(90)"/>
</clipPath>
</defs>
</svg>
