<svg width="304" height="209" viewBox="0 0 304 209" fill="none" xmlns="http://www.w3.org/2000/svg">
<g clip-path="url(#clip0_281:9407)">
<path d="M43.9512 198.692L47.512 200.951L57.914 188.285L52.6585 184.952L43.9512 198.692Z" fill="#9F616A"/>
<path d="M43.7798 196.953L50.7925 201.401L50.7928 201.401C51.978 202.153 52.8161 203.345 53.1228 204.715C53.4295 206.085 53.1798 207.521 52.4284 208.707L52.3363 208.852L40.8545 201.57L43.7798 196.953Z" fill="#2F2E41"/>
<path d="M77.6159 204.763L81.8322 204.763L83.8378 188.493L77.6152 188.494L77.6159 204.763Z" fill="#9F616A"/>
<path d="M76.541 203.386L84.8442 203.386H84.8446C86.2479 203.386 87.5938 203.944 88.5861 204.936C89.5784 205.929 90.136 207.276 90.1361 208.679V208.852L76.5413 208.852L76.541 203.386Z" fill="#2F2E41"/>
<path d="M131.371 209H0.343904C0.252695 209 0.165221 208.964 0.100727 208.899C0.0362324 208.835 0 208.747 0 208.656C0 208.565 0.0362324 208.477 0.100727 208.413C0.165221 208.348 0.252695 208.312 0.343904 208.312H131.371C131.462 208.312 131.55 208.348 131.614 208.413C131.679 208.477 131.715 208.565 131.715 208.656C131.715 208.747 131.679 208.835 131.614 208.899C131.55 208.964 131.462 209 131.371 209Z" fill="#3F3D56"/>
<path d="M82.4563 141.011C82.1722 140.593 81.9831 140.117 81.9026 139.618C81.822 139.119 81.8519 138.608 81.9901 138.121C82.1282 137.635 82.3713 137.184 82.7023 136.802C83.0332 136.42 83.4439 136.114 83.9055 135.908L82.846 123.659L88.4606 126.704L88.6059 137.869C88.9011 138.667 88.8932 139.547 88.5836 140.34C88.2741 141.133 87.6844 141.785 86.9264 142.173C86.1684 142.56 85.2946 142.656 84.4708 142.442C83.6469 142.228 82.9302 141.719 82.4563 141.011H82.4563Z" fill="#9F616A"/>
<path d="M65.6865 136.595L75.6124 196.323C75.6124 196.323 73.6598 201.207 76.5887 201.858C79.5176 202.509 86.0264 201.207 86.0264 201.207C86.0264 201.207 87.979 196.323 85.0501 195.672L79.5176 133.265L65.6865 136.595Z" fill="#2F2E41"/>
<path d="M71.5445 137.66L64.668 165.588L47.1367 191.055C47.1367 191.055 40.6279 191.706 44.2077 195.288C47.7875 198.869 49.4147 199.194 49.4147 199.194C49.4147 199.194 54.9472 198.543 54.6217 195.939L76.1754 170.558L86.1892 136.683L71.5445 137.66Z" fill="#2F2E41"/>
<path d="M156.52 139.418C156.405 139.477 156.309 139.567 156.243 139.678C156.176 139.789 156.143 139.916 156.146 140.045C156.149 140.175 156.188 140.3 156.259 140.408C156.33 140.516 156.43 140.602 156.547 140.656L160.123 142.289C160.175 142.313 160.222 142.348 160.261 142.39C160.299 142.434 160.327 142.485 160.345 142.539L161.733 146.937C161.776 147.082 161.866 147.208 161.989 147.295C162.112 147.382 162.261 147.426 162.411 147.418L162.417 147.418C162.566 147.414 162.711 147.36 162.826 147.265C162.942 147.17 163.022 147.039 163.055 146.892L163.586 144.687C163.605 144.614 163.642 144.548 163.695 144.495C163.748 144.441 163.815 144.404 163.887 144.386C163.941 144.371 163.996 144.368 164.051 144.377C164.105 144.385 164.157 144.405 164.204 144.434L170.716 148.454C170.81 148.513 170.917 148.548 171.028 148.555C171.138 148.563 171.249 148.544 171.35 148.5C171.451 148.455 171.54 148.387 171.61 148.301C171.679 148.216 171.727 148.114 171.749 148.006L175.134 131.175C175.16 131.048 175.149 130.917 175.103 130.796C175.058 130.675 174.979 130.569 174.876 130.491C174.773 130.413 174.65 130.365 174.521 130.354C174.392 130.343 174.263 130.368 174.148 130.427L173.922 130.542L156.52 139.418ZM156.661 140.406C156.59 140.374 156.53 140.322 156.488 140.257C156.445 140.193 156.422 140.117 156.42 140.039C156.419 139.962 156.439 139.885 156.479 139.819C156.519 139.752 156.576 139.698 156.645 139.663L174.042 130.79L174.273 130.672C174.342 130.637 174.42 130.622 174.497 130.629C174.574 130.636 174.647 130.664 174.709 130.711C174.771 130.758 174.818 130.821 174.846 130.893C174.873 130.966 174.88 131.044 174.865 131.12L171.48 147.951C171.467 148.016 171.438 148.077 171.396 148.129C171.355 148.18 171.301 148.221 171.24 148.247C171.179 148.274 171.113 148.285 171.047 148.28C170.981 148.276 170.917 148.255 170.86 148.22L164.348 144.2C164.284 144.16 164.214 144.13 164.14 144.114L174.446 131.318C174.486 131.268 174.509 131.206 174.508 131.142C174.508 131.078 174.485 131.016 174.444 130.966C174.403 130.917 174.346 130.884 174.283 130.872C174.22 130.861 174.155 130.872 174.099 130.903C174.085 130.911 174.072 130.919 174.06 130.929L160.367 142.116C160.326 142.086 160.282 142.06 160.236 142.039L156.661 140.406Z" fill="#F1F1F1"/>
<path d="M156.52 139.418C156.405 139.477 156.309 139.567 156.243 139.678C156.176 139.789 156.143 139.916 156.146 140.045C156.149 140.175 156.188 140.3 156.259 140.408C156.33 140.516 156.43 140.602 156.547 140.656L160.123 142.289C160.175 142.313 160.222 142.348 160.261 142.39C160.299 142.434 160.327 142.485 160.345 142.539L161.733 146.937C161.776 147.082 161.866 147.208 161.989 147.295C162.112 147.382 162.261 147.426 162.411 147.418L162.417 147.418C162.566 147.414 162.711 147.36 162.826 147.265C162.942 147.17 163.022 147.039 163.055 146.892L163.586 144.687C163.605 144.614 163.642 144.548 163.695 144.495C163.748 144.441 163.815 144.404 163.887 144.386C163.941 144.371 163.996 144.368 164.051 144.377C164.105 144.385 164.157 144.405 164.204 144.434L170.716 148.454C170.81 148.513 170.917 148.548 171.028 148.555C171.138 148.563 171.249 148.544 171.35 148.5C171.451 148.455 171.54 148.387 171.61 148.301C171.679 148.216 171.727 148.114 171.749 148.006L175.134 131.175C175.16 131.048 175.149 130.917 175.103 130.796C175.058 130.675 174.979 130.569 174.876 130.491C174.773 130.413 174.65 130.365 174.521 130.354C174.392 130.343 174.263 130.368 174.148 130.427L173.922 130.542L156.52 139.418ZM156.661 140.406C156.59 140.374 156.53 140.322 156.488 140.257C156.445 140.193 156.422 140.117 156.42 140.039C156.419 139.962 156.439 139.885 156.479 139.819C156.519 139.752 156.576 139.698 156.645 139.663L174.042 130.79L174.273 130.672C174.342 130.637 174.42 130.622 174.497 130.629C174.574 130.636 174.647 130.664 174.709 130.711C174.771 130.758 174.818 130.821 174.846 130.893C174.873 130.966 174.88 131.044 174.865 131.12L171.48 147.951C171.467 148.016 171.438 148.077 171.396 148.129C171.355 148.18 171.301 148.221 171.24 148.247C171.179 148.274 171.113 148.285 171.047 148.28C170.981 148.276 170.917 148.255 170.86 148.22L164.348 144.2C164.284 144.16 164.214 144.13 164.14 144.114C164.034 144.089 163.924 144.091 163.819 144.119C163.804 144.122 163.789 144.127 163.774 144.132L163.772 144.132C163.661 144.168 163.562 144.232 163.482 144.318C163.403 144.404 163.347 144.509 163.32 144.622L162.788 146.829C162.769 146.917 162.721 146.996 162.651 147.053C162.581 147.11 162.494 147.142 162.404 147.143L162.401 147.144C162.311 147.149 162.221 147.123 162.147 147.071C162.074 147.018 162.02 146.942 161.995 146.855L160.607 142.457C160.592 142.41 160.573 142.366 160.549 142.323L160.549 142.322C160.526 142.281 160.498 142.243 160.467 142.208C160.437 142.174 160.404 142.143 160.367 142.116C160.326 142.086 160.282 142.06 160.236 142.039L156.661 140.406Z" fill="#E5E5E5"/>
<path d="M160.367 142.116L174.06 130.929C174.072 130.919 174.085 130.911 174.099 130.903C174.155 130.872 174.22 130.861 174.283 130.872C174.346 130.884 174.403 130.917 174.444 130.966C174.486 131.016 174.508 131.078 174.509 131.142C174.509 131.206 174.487 131.268 174.446 131.318L164.14 144.114L163.959 144.34L163.745 144.167L163.773 144.132L163.774 144.132L174.231 131.145L160.549 142.322L160.549 142.323L160.489 142.371L160.315 142.158L160.367 142.116Z" fill="#E5E5E5"/>
<path d="M265.741 44.0638H265.698L241.112 54.5665L207.474 68.9366C207.343 68.9919 207.202 69.0208 207.059 69.0215C206.916 69.0222 206.775 68.9949 206.643 68.9409L171.938 54.5365L146.748 44.0809L146.71 44.0638H146.667C146.27 44.0642 145.889 44.2224 145.608 44.5035C145.326 44.7847 145.168 45.1659 145.168 45.5636V110.697C145.168 111.095 145.326 111.476 145.608 111.757C145.889 112.038 146.27 112.196 146.667 112.197H265.741C266.138 112.196 266.519 112.038 266.801 111.757C267.082 111.476 267.24 111.095 267.24 110.697V45.5636C267.24 45.1659 267.082 44.7847 266.801 44.5035C266.519 44.2224 266.138 44.0642 265.741 44.0638Z" fill="white"/>
<path d="M182.166 100.384H154.444C154.101 100.385 153.771 100.249 153.528 100.006C153.285 99.7633 153.148 99.434 153.147 99.0903C153.147 98.7467 153.283 98.4169 153.525 98.1736C153.768 97.9302 154.097 97.7932 154.441 97.7927H182.166C182.509 97.7922 182.839 97.9282 183.082 98.1709C183.325 98.4135 183.462 98.7429 183.463 99.0865C183.463 99.4301 183.327 99.7599 183.085 100.003C182.842 100.247 182.513 100.384 182.169 100.384H182.166Z" fill="#00B9A7"/>
<path d="M164.389 94.8135H154.444C154.1 94.8137 153.771 94.6776 153.528 94.435C153.285 94.1924 153.148 93.8632 153.147 93.5197C153.147 93.1762 153.283 92.8466 153.525 92.6033C153.767 92.3599 154.096 92.2229 154.44 92.2221H164.389C164.559 92.2217 164.728 92.2549 164.885 92.3197C165.043 92.3846 165.186 92.4798 165.306 92.5999C165.427 92.7201 165.522 92.8628 165.588 93.02C165.653 93.1771 165.687 93.3456 165.687 93.5159C165.688 93.6861 165.654 93.8547 165.589 94.0121C165.524 94.1694 165.429 94.3124 165.309 94.4329C165.189 94.5534 165.046 94.6491 164.889 94.7144C164.732 94.7796 164.563 94.8133 164.393 94.8135H164.389Z" fill="#00B9A7"/>
<path d="M83.5196 133.262L83.474 133.147L77.2797 117.491L76.2969 87.8156L76.462 87.8038C77.6715 87.7174 78.8862 87.8737 80.0346 88.2634C81.1829 88.6532 82.2419 89.2686 83.1492 90.0735C84.0565 90.8784 84.7939 91.8566 85.3181 92.9506C85.8422 94.0446 86.1426 95.2324 86.2015 96.4441L87.1099 112.399L89.6853 132.92L83.5196 133.262Z" fill="#E5E5E5"/>
<path d="M65.5441 140.119L63.8834 130.638C61.3825 128.023 66.1079 121.558 66.6347 120.856L66.3256 116.835C66.0621 116.79 65.8211 116.659 65.6403 116.462C64.0889 114.879 64.1932 108.635 64.1984 108.369L62.4863 90.5526L66.7458 88.0666L77.5176 87.7192L82.7781 92.2802L87.8447 138.848L87.664 138.858L65.5441 140.119Z" fill="#E5E5E5"/>
<path d="M69.2712 143.445C68.837 143.186 68.465 142.834 68.1812 142.416C67.8974 141.997 67.7089 141.521 67.6288 141.022C67.5487 140.523 67.579 140.012 67.7176 139.525C67.8562 139.039 68.0997 138.589 68.431 138.207L62.3008 127.551L68.6752 127.939L73.5193 137.998C74.124 138.598 74.4879 139.398 74.5421 140.248C74.5963 141.098 74.337 141.938 73.8134 142.609C73.2897 143.281 72.5381 143.737 71.701 143.891C70.8638 144.045 69.9993 143.886 69.2712 143.445H69.2712Z" fill="#9F616A"/>
<path d="M63.8428 133.481L58.5548 121.217L57.671 96.1663C57.6408 95.3433 57.8366 94.5277 58.2372 93.8081C58.6378 93.0886 59.2278 92.4927 59.9432 92.0851L66.0436 88.3556L67.3598 114.691L71.2963 130.43L63.8428 133.481Z" fill="#E5E5E5"/>
<path opacity="0.2" d="M67.4819 105.096L67.0596 120.169L72.3013 131.222L67.4819 104.695" fill="black"/>
<path d="M73.3334 85.3433C77.5135 85.3433 80.9022 81.9532 80.9022 77.7713C80.9022 73.5893 77.5135 70.1992 73.3334 70.1992C69.1533 70.1992 65.7646 73.5893 65.7646 77.7713C65.7646 81.9532 69.1533 85.3433 73.3334 85.3433Z" fill="#9F616A"/>
<path d="M76.0704 66.5908C68.4478 64.3917 66.2842 70.7122 66.2842 70.7122C62.6099 73.1509 64.9103 76.2084 64.9103 76.2084C63.9832 76.4144 65.8369 81.8421 66.455 81.7047C66.7848 81.6314 67.6329 82.6442 68.3522 83.6047C68.5988 83.6044 68.8449 83.628 69.087 83.6753L67.6914 78.5101C67.6914 78.5101 72.3956 77.7891 73.8379 75.522C75.2178 73.353 79.7603 72.6682 81.053 74.117C81.1295 73.7005 81.286 73.3027 81.5141 72.9459C81.6906 72.6748 81.9214 72.4433 82.1919 72.266C81.0489 67.4066 76.0704 66.5908 76.0704 66.5908Z" fill="#2F2E41"/>
<path d="M265.847 44.4923C265.804 44.4923 265.761 44.4789 265.725 44.4539L206.497 3.18768C206.317 3.06269 206.102 2.99589 205.883 2.99626C205.664 2.99663 205.45 3.06416 205.27 3.18977L146.468 44.4535C146.422 44.4859 146.364 44.4985 146.309 44.4886C146.253 44.4787 146.203 44.447 146.171 44.4006C146.138 44.3542 146.125 44.2968 146.135 44.2409C146.145 44.1851 146.176 44.1353 146.222 44.1026L205.024 2.83891C205.276 2.66308 205.575 2.56856 205.882 2.56806C206.189 2.56755 206.489 2.66108 206.742 2.83608L265.97 44.1022C266.007 44.1283 266.035 44.1656 266.05 44.2088C266.065 44.252 266.065 44.2987 266.052 44.3423C266.038 44.3858 266.011 44.4238 265.974 44.4508C265.937 44.4778 265.893 44.4923 265.847 44.4923H265.847Z" fill="#3F3D56"/>
<path d="M149.829 45.9552L205.942 4.35052L262.481 48.9154L208.833 80.7321L179.707 74.0905L149.829 45.9552Z" fill="#E6E6E6"/>
<path d="M206.731 69.1283C206.52 69.1285 206.311 69.0876 206.116 69.0079L171.51 54.6424V9.67587C171.51 9.27824 171.668 8.89704 171.949 8.61588C172.23 8.33471 172.611 8.17655 173.009 8.17609H239.399C239.796 8.17655 240.177 8.33471 240.459 8.61588C240.74 8.89704 240.898 9.27824 240.898 9.67587V54.6738L240.833 54.7016L207.364 69.0009C207.163 69.0851 206.948 69.1285 206.731 69.1283Z" fill="white"/>
<path d="M206.73 69.2353C206.506 69.2355 206.283 69.192 206.075 69.107L171.402 54.7139V9.67582C171.403 9.24978 171.572 8.84134 171.873 8.54009C172.174 8.23884 172.583 8.06939 173.009 8.06891H239.399C239.825 8.06939 240.233 8.23884 240.534 8.54009C240.835 8.84134 241.004 9.24978 241.005 9.67582V54.7444L207.406 69.0993C207.192 69.1893 206.962 69.2355 206.73 69.2353ZM171.831 54.4276L206.239 68.7109C206.559 68.8411 206.919 68.839 207.238 68.7049L240.577 54.4615V9.67582C240.576 9.3634 240.452 9.06389 240.231 8.84298C240.01 8.62207 239.711 8.49781 239.399 8.49744H173.009C172.696 8.49781 172.397 8.62207 172.176 8.84298C171.955 9.06389 171.831 9.3634 171.831 9.67582L171.831 54.4276Z" fill="#3F3D56"/>
<path d="M265.42 44.0638H265.377L240.791 54.5665L207.153 68.9366C207.021 68.9919 206.88 69.0208 206.738 69.0215C206.595 69.0222 206.454 68.9949 206.322 68.9409L171.617 54.5365L146.427 44.0809L146.389 44.0638H146.346C145.948 44.0642 145.567 44.2224 145.286 44.5035C145.005 44.7847 144.847 45.1659 144.847 45.5636V110.697C144.847 111.095 145.005 111.476 145.286 111.757C145.567 112.038 145.948 112.196 146.346 112.197H265.42C265.817 112.196 266.198 112.038 266.479 111.757C266.76 111.476 266.918 111.095 266.919 110.697V45.5636C266.918 45.1659 266.76 44.7847 266.479 44.5035C266.198 44.2224 265.817 44.0642 265.42 44.0638ZM266.49 110.697C266.49 110.981 266.377 111.253 266.177 111.454C265.976 111.655 265.704 111.768 265.42 111.768H146.346C146.062 111.768 145.79 111.655 145.589 111.454C145.388 111.253 145.275 110.981 145.275 110.697V45.5636C145.275 45.2865 145.383 45.0204 145.575 44.8207C145.767 44.6211 146.028 44.5034 146.305 44.4923L171.617 54.9993L206.157 69.3373C206.531 69.4895 206.95 69.4871 207.322 69.3308L240.791 55.0315L265.463 44.4923C265.739 44.5042 266 44.6222 266.191 44.8218C266.383 45.0213 266.49 45.287 266.49 45.5636V110.697Z" fill="#3F3D56"/>
<path d="M223.823 50.0525H187.844C187.39 50.0525 186.954 49.8719 186.633 49.5505C186.311 49.2291 186.131 48.7931 186.131 48.3385C186.131 47.8839 186.311 47.4479 186.633 47.1265C186.954 46.805 187.39 46.6245 187.844 46.6245H223.823C224.278 46.6245 224.713 46.805 225.035 47.1265C225.356 47.4479 225.537 47.8839 225.537 48.3385C225.537 48.7931 225.356 49.2291 225.035 49.5505C224.713 49.8719 224.278 50.0525 223.823 50.0525Z" fill="#CCCCCC"/>
<path d="M223.823 42.1251H187.844C187.39 42.1245 186.955 41.9436 186.634 41.6222C186.313 41.3008 186.133 40.8652 186.133 40.4111C186.133 39.9569 186.313 39.5213 186.634 39.1999C186.955 38.8785 187.39 38.6977 187.844 38.697H223.823C224.277 38.6977 224.712 38.8785 225.033 39.1999C225.354 39.5213 225.534 39.9569 225.534 40.4111C225.534 40.8652 225.354 41.3008 225.033 41.6222C224.712 41.9436 224.277 42.1245 223.823 42.1251Z" fill="#CCCCCC"/>
<path d="M264.755 60.9831C273.752 60.9831 281.046 53.6862 281.046 44.6849C281.046 35.6836 273.752 28.3866 264.755 28.3866C255.758 28.3866 248.464 35.6836 248.464 44.6849C248.464 53.6862 255.758 60.9831 264.755 60.9831Z" fill="#00B9A7"/>
<path d="M263.203 51.565L258.327 45.2926L261.163 43.0861L263.471 46.056L271.271 37.819L273.879 40.2911L263.203 51.565Z" fill="white"/>
<path d="M201.343 24.9847H177.785C177.331 24.9841 176.896 24.8032 176.575 24.4818C176.254 24.1605 176.074 23.7249 176.074 23.2707C176.074 22.8165 176.254 22.3809 176.575 22.0595C176.896 21.7382 177.331 21.5573 177.785 21.5566H201.343C201.797 21.5573 202.232 21.7382 202.553 22.0595C202.874 22.3809 203.054 22.8165 203.054 23.2707C203.054 23.7249 202.874 24.1605 202.553 24.4818C202.232 24.8032 201.797 24.9841 201.343 24.9847Z" fill="#00B9A7"/>
<path d="M113.26 16.2663C113.149 16.2005 113.021 16.1674 112.892 16.1708C112.763 16.1742 112.637 16.2139 112.53 16.2854C112.422 16.3569 112.337 16.4573 112.283 16.5751C112.23 16.6928 112.211 16.8232 112.229 16.9513L112.76 20.8471C112.767 20.9045 112.763 20.9628 112.748 21.0188C112.732 21.0739 112.704 21.1249 112.667 21.1688L109.693 24.6932C109.594 24.8066 109.535 24.9502 109.527 25.1008C109.519 25.2514 109.562 25.4003 109.649 25.5236L109.652 25.5281C109.735 25.6527 109.858 25.7458 110 25.7927C110.142 25.8396 110.296 25.8375 110.437 25.7868L112.585 25.0576C112.656 25.034 112.732 25.0303 112.805 25.0467C112.879 25.0632 112.946 25.0993 113 25.1511C113.041 25.1886 113.073 25.234 113.095 25.2846C113.117 25.3352 113.128 25.3898 113.128 25.445L113.212 33.0998C113.213 33.2106 113.241 33.3196 113.293 33.4172C113.346 33.5148 113.421 33.5983 113.513 33.6603C113.604 33.7221 113.709 33.761 113.819 33.7738C113.929 33.7866 114.04 33.7728 114.143 33.7337L130.171 27.6011C130.292 27.5551 130.398 27.4759 130.475 27.3726C130.553 27.2693 130.6 27.1462 130.611 27.0173C130.622 26.8884 130.597 26.759 130.538 26.644C130.478 26.529 130.388 26.433 130.277 26.3672L130.058 26.2375L113.26 16.2663V16.2663ZM112.5 16.9138C112.49 16.8369 112.501 16.7587 112.533 16.6881C112.566 16.6174 112.617 16.5573 112.681 16.5144C112.746 16.4716 112.822 16.4479 112.899 16.4459C112.977 16.444 113.053 16.464 113.12 16.5035L129.913 26.4717L130.137 26.6043C130.203 26.644 130.257 26.7016 130.292 26.7705C130.328 26.8394 130.343 26.9168 130.336 26.994C130.33 27.0711 130.302 27.1448 130.255 27.2068C130.209 27.2687 130.146 27.3164 130.074 27.3444L114.046 33.477C113.984 33.5005 113.917 33.5088 113.851 33.5011C113.785 33.4933 113.722 33.4698 113.667 33.4324C113.612 33.3951 113.567 33.3451 113.536 33.2866C113.505 33.2281 113.488 33.1629 113.487 33.0966L113.403 25.4418C113.403 25.3661 113.39 25.2909 113.365 25.2196L129.683 27.0953C129.747 27.1033 129.811 27.0888 129.865 27.0542C129.919 27.0197 129.959 26.9674 129.979 26.9063C129.999 26.8452 129.996 26.7792 129.972 26.7196C129.948 26.6601 129.904 26.6108 129.848 26.5803C129.834 26.5727 129.82 26.5664 129.805 26.5616L113.036 20.9616C113.04 20.911 113.038 20.86 113.031 20.8097L112.5 16.9138L112.5 16.9138Z" fill="#F1F1F1"/>
<path d="M113.26 16.2663C113.149 16.2005 113.021 16.1674 112.892 16.1708C112.763 16.1742 112.637 16.2139 112.53 16.2854C112.422 16.3569 112.337 16.4573 112.283 16.5751C112.23 16.6928 112.211 16.8232 112.229 16.9513L112.76 20.8471C112.767 20.9045 112.763 20.9628 112.748 21.0188C112.732 21.0739 112.704 21.1249 112.667 21.1688L109.693 24.6932C109.594 24.8066 109.535 24.9502 109.527 25.1008C109.519 25.2514 109.562 25.4003 109.649 25.5236L109.652 25.5281C109.735 25.6527 109.858 25.7458 110 25.7927C110.142 25.8396 110.296 25.8375 110.437 25.7868L112.585 25.0576C112.656 25.034 112.732 25.0303 112.805 25.0467C112.879 25.0632 112.946 25.0993 113 25.1511C113.041 25.1886 113.073 25.234 113.095 25.2846C113.117 25.3352 113.128 25.3898 113.128 25.445L113.212 33.0998C113.213 33.2106 113.241 33.3196 113.293 33.4172C113.346 33.5148 113.421 33.5983 113.513 33.6603C113.604 33.7221 113.709 33.761 113.819 33.7738C113.929 33.7866 114.04 33.7728 114.143 33.7337L130.171 27.6011C130.292 27.5551 130.398 27.4759 130.475 27.3726C130.553 27.2693 130.6 27.1462 130.611 27.0173C130.622 26.8884 130.597 26.759 130.538 26.644C130.478 26.529 130.388 26.433 130.277 26.3672L130.058 26.2375L113.26 16.2663V16.2663ZM112.5 16.9138C112.49 16.8369 112.501 16.7587 112.533 16.6881C112.566 16.6174 112.617 16.5573 112.681 16.5144C112.746 16.4716 112.822 16.4479 112.899 16.4459C112.977 16.444 113.053 16.464 113.12 16.5035L129.913 26.4717L130.137 26.6043C130.203 26.644 130.257 26.7016 130.292 26.7705C130.328 26.8394 130.343 26.9168 130.336 26.994C130.33 27.0711 130.302 27.1448 130.255 27.2068C130.209 27.2687 130.146 27.3164 130.074 27.3444L114.046 33.477C113.984 33.5005 113.917 33.5088 113.851 33.5011C113.785 33.4933 113.722 33.4698 113.667 33.4324C113.612 33.3951 113.567 33.3451 113.536 33.2866C113.505 33.2281 113.488 33.1629 113.487 33.0966L113.403 25.4418C113.403 25.3661 113.39 25.2909 113.365 25.2196C113.329 25.1169 113.268 25.0245 113.189 24.9504C113.178 24.9396 113.166 24.9295 113.154 24.9194L113.153 24.9183C113.063 24.8439 112.956 24.7938 112.841 24.7727C112.726 24.7516 112.608 24.7602 112.497 24.7977L110.348 25.5277C110.264 25.5584 110.171 25.5596 110.086 25.5311C110 25.5026 109.927 25.4461 109.877 25.3707L109.876 25.3684C109.823 25.2947 109.797 25.2053 109.802 25.1148C109.807 25.0244 109.842 24.9382 109.902 24.8706L112.876 21.3463C112.908 21.3094 112.935 21.269 112.958 21.2259L112.959 21.2252C112.981 21.1839 112.999 21.1405 113.012 21.0955C113.024 21.0519 113.033 21.007 113.036 20.9617C113.04 20.911 113.038 20.86 113.031 20.8097L112.5 16.9138V16.9138Z" fill="#E5E5E5"/>
<path d="M113.036 20.9617L129.805 26.5616C129.82 26.5665 129.834 26.5727 129.848 26.5803C129.904 26.6109 129.948 26.6601 129.972 26.7197C129.996 26.7792 129.999 26.8452 129.979 26.9063C129.959 26.9674 129.919 27.0197 129.865 27.0543C129.811 27.0888 129.747 27.1033 129.683 27.0954L113.365 25.2196L113.077 25.1868L113.108 24.9141L113.153 24.9183L113.154 24.9194L129.714 26.8216L112.959 21.2252L112.958 21.2259L112.886 21.2009L112.973 20.9402L113.036 20.9617Z" fill="#E5E5E5"/>
<path d="M189.135 17.7H177.785C177.33 17.7 176.894 17.5194 176.573 17.198C176.252 16.8765 176.071 16.4405 176.071 15.9859C176.071 15.5314 176.252 15.0954 176.573 14.7739C176.894 14.4525 177.33 14.2719 177.785 14.2719H189.135C189.59 14.2719 190.025 14.4525 190.347 14.7739C190.668 15.0954 190.848 15.5314 190.848 15.9859C190.848 16.4405 190.668 16.8765 190.347 17.198C190.025 17.5194 189.59 17.7 189.135 17.7Z" fill="#00B9A7"/>
<path d="M300.266 0.0958365L283.468 10.067L283.249 10.1967C283.138 10.2626 283.048 10.3585 282.988 10.4735C282.929 10.5885 282.904 10.7179 282.915 10.8468C282.926 10.9757 282.973 11.0989 283.051 11.2021C283.129 11.3054 283.234 11.3846 283.355 11.4306L299.383 17.5632C299.486 17.6024 299.597 17.6161 299.707 17.6034C299.817 17.5906 299.922 17.5516 300.013 17.4898C300.105 17.4278 300.18 17.3444 300.233 17.2467C300.285 17.1491 300.313 17.0402 300.314 16.9293L300.398 9.27453C300.398 9.21935 300.409 9.16474 300.431 9.11416C300.453 9.06357 300.485 9.01809 300.526 8.98059C300.58 8.9288 300.648 8.89274 300.721 8.87628C300.794 8.85981 300.87 8.86356 300.941 8.88712L303.089 9.61634C303.23 9.66704 303.384 9.66912 303.526 9.62224C303.668 9.57535 303.791 9.4822 303.874 9.35761L303.877 9.35309C303.964 9.22983 304.007 9.08093 303.999 8.93032C303.991 8.77972 303.932 8.63615 303.833 8.52271L300.859 4.99836C300.822 4.95447 300.795 4.9034 300.778 4.84832C300.763 4.79238 300.759 4.73406 300.766 4.67662L301.297 0.780793C301.315 0.652743 301.296 0.522366 301.243 0.4046C301.189 0.286835 301.104 0.186453 300.996 0.114956C300.889 0.0434596 300.763 0.00374002 300.634 0.000357698C300.505 -0.00302463 300.378 0.0300656 300.266 0.0958312V0.0958365ZM301.026 0.743378L300.495 4.63919C300.488 4.68951 300.486 4.7405 300.49 4.79118L283.721 10.3911C283.706 10.3959 283.692 10.4022 283.678 10.4098C283.622 10.4404 283.578 10.4896 283.554 10.5492C283.53 10.6087 283.527 10.6747 283.547 10.7358C283.567 10.7969 283.607 10.8492 283.661 10.8838C283.715 10.9183 283.779 10.9328 283.843 10.9249L300.161 9.04912C300.136 9.12044 300.123 9.19563 300.123 9.27137L300.039 16.9261C300.038 16.9925 300.021 17.0576 299.99 17.1161C299.959 17.1746 299.914 17.2246 299.859 17.262C299.804 17.2993 299.741 17.3228 299.675 17.3306C299.609 17.3383 299.542 17.3301 299.48 17.3065L283.452 11.1739C283.38 11.1459 283.317 11.0983 283.271 11.0363C283.224 10.9744 283.196 10.9006 283.19 10.8235C283.183 10.7463 283.198 10.6689 283.234 10.6C283.269 10.5311 283.323 10.4736 283.389 10.4338L283.613 10.3012L300.406 0.333008C300.473 0.293472 300.549 0.273533 300.627 0.27547C300.704 0.277407 300.78 0.301145 300.845 0.343965C300.909 0.386784 300.961 0.446954 300.993 0.517587C301.025 0.588221 301.036 0.666466 301.026 0.743357V0.743378Z" fill="#F1F1F1"/>
<path d="M300.266 0.0958365L283.468 10.067L283.249 10.1967C283.138 10.2626 283.048 10.3585 282.988 10.4735C282.929 10.5885 282.904 10.7179 282.915 10.8468C282.926 10.9757 282.973 11.0989 283.051 11.2021C283.129 11.3054 283.234 11.3846 283.355 11.4306L299.383 17.5632C299.486 17.6024 299.597 17.6161 299.707 17.6034C299.817 17.5906 299.922 17.5516 300.013 17.4898C300.105 17.4278 300.18 17.3444 300.233 17.2467C300.285 17.1491 300.313 17.0402 300.314 16.9293L300.398 9.27453C300.398 9.21935 300.409 9.16474 300.431 9.11416C300.453 9.06357 300.485 9.01809 300.526 8.98059C300.58 8.9288 300.648 8.89274 300.721 8.87628C300.794 8.85981 300.87 8.86356 300.941 8.88712L303.089 9.61634C303.23 9.66704 303.384 9.66912 303.526 9.62224C303.668 9.57535 303.791 9.4822 303.874 9.35761L303.877 9.35309C303.964 9.22983 304.007 9.08093 303.999 8.93032C303.991 8.77972 303.932 8.63615 303.833 8.52271L300.859 4.99836C300.822 4.95447 300.795 4.9034 300.778 4.84832C300.763 4.79238 300.759 4.73406 300.766 4.67662L301.297 0.780793C301.315 0.652743 301.296 0.522366 301.243 0.4046C301.189 0.286835 301.104 0.186453 300.996 0.114956C300.889 0.0434596 300.763 0.00374002 300.634 0.000357698C300.505 -0.00302463 300.378 0.0300656 300.266 0.0958312V0.0958365ZM301.026 0.743378L300.495 4.6392C300.488 4.68952 300.486 4.7405 300.49 4.79119C300.493 4.83654 300.502 4.88141 300.514 4.92503C300.527 4.96998 300.545 5.01344 300.567 5.05468L300.568 5.05546C300.591 5.09853 300.618 5.1389 300.65 5.17581L303.624 8.70011C303.684 8.76775 303.719 8.85389 303.724 8.94437C303.729 9.03484 303.703 9.12426 303.65 9.19793L303.649 9.20019C303.599 9.27561 303.526 9.33216 303.44 9.36065C303.355 9.38915 303.262 9.38792 303.178 9.35718L301.029 8.62718C300.919 8.58969 300.8 8.5811 300.685 8.60221C300.571 8.62332 300.463 8.67344 300.373 8.74781L300.372 8.74892C300.36 8.75904 300.348 8.76911 300.337 8.77996C300.258 8.85401 300.197 8.9464 300.161 9.04911C300.136 9.12043 300.123 9.19562 300.123 9.27136L300.039 16.9261C300.038 16.9925 300.021 17.0576 299.99 17.1161C299.959 17.1746 299.914 17.2246 299.859 17.2619C299.804 17.2993 299.741 17.3228 299.675 17.3306C299.609 17.3383 299.542 17.3301 299.48 17.3065L283.452 11.1739C283.38 11.1459 283.317 11.0983 283.271 11.0363C283.224 10.9744 283.196 10.9006 283.19 10.8235C283.183 10.7464 283.198 10.6689 283.234 10.6C283.269 10.5311 283.323 10.4736 283.389 10.4338L283.613 10.3013L300.406 0.333014C300.473 0.293477 300.549 0.273538 300.627 0.275475C300.704 0.277413 300.78 0.30115 300.845 0.34397C300.909 0.38679 300.961 0.446959 300.993 0.517593C301.025 0.588226 301.036 0.666471 301.026 0.743362V0.743378Z" fill="#E5E5E5"/>
<path d="M300.554 4.76971L300.641 5.03039L300.568 5.05541L300.567 5.05463L283.812 10.6511L300.372 8.74886L300.373 8.74777L300.418 8.74358L300.45 9.01623L300.162 9.04906L283.843 10.9248C283.78 10.9328 283.715 10.9183 283.661 10.8837C283.607 10.8492 283.567 10.7969 283.547 10.7358C283.528 10.6747 283.53 10.6087 283.554 10.5491C283.578 10.4896 283.622 10.4403 283.678 10.4098C283.692 10.4022 283.706 10.3959 283.721 10.3911L300.49 4.79115L300.554 4.76971Z" fill="#E5E5E5"/>
</g>
<defs>
<clipPath id="clip0_281:9407">
<rect width="304" height="209" fill="white"/>
</clipPath>
</defs>
</svg>
