<svg width="274" height="197" viewBox="0 0 274 197" fill="none" xmlns="http://www.w3.org/2000/svg">
<g clip-path="url(#clip0_281:9359)">
<path d="M51.4453 179.033V184.163L58.3215 185.539L57.6964 177.031L51.4453 179.033Z" fill="#FFB9B9"/>
<path d="M58.9472 184.914C58.9472 184.914 56.3217 180.472 51.4458 183.256C51.4458 183.256 50.5706 188.167 49.6955 188.542C48.8203 188.917 43.9444 196.049 49.6955 196.675C55.4466 197.3 58.3221 195.424 58.3221 195.424C58.3221 195.424 57.1969 196.393 58.9472 195.892C60.6975 195.392 59.9474 192.639 59.9474 192.639L58.9472 184.914Z" fill="#2F2E41"/>
<path d="M72.0747 177.031L70.5742 184.163L73.5749 186.29L78.826 182.411L78.2008 176.28L72.0747 177.031Z" fill="#FFB9B9"/>
<path d="M76.0753 181.911C76.0753 181.911 72.1995 184.663 71.5744 183.412C70.9493 182.161 69.9491 182.286 69.9491 182.286C69.9491 182.286 66.4484 195.493 68.6989 196.118C70.1479 196.475 71.6701 196.397 73.0747 195.892C73.0747 195.892 76.0753 193.789 76.0753 195.416C76.0753 197.042 84.4519 196.925 87.9525 196.8C91.4532 196.675 89.5778 194.047 89.5778 194.047L84.952 189.543L79.701 181.911C79.701 181.911 77.3255 179.784 76.0753 181.911Z" fill="#2F2E41"/>
<path d="M24.5654 138.744L30.4415 118.35L32.4419 118.975C32.4419 118.975 30.0665 134.24 26.3158 138.119L24.5654 138.744Z" fill="#2F2E41"/>
<path d="M39.1934 98.2056L44.4444 148.629C44.4444 148.629 47.3199 179.408 47.82 179.909C48.3201 180.409 51.5707 182.036 58.697 179.909L57.0717 139.62L60.0723 114.596L66.9486 131.863C66.9486 131.863 68.5739 178.282 69.6991 178.282C70.8243 178.282 77.7006 180.534 79.326 177.782C80.9513 175.029 80.7012 145.376 80.7012 145.376C80.7012 145.376 79.9511 98.5809 74.45 97.0795C68.949 95.5781 39.1934 98.2056 39.1934 98.2056Z" fill="#2F2E41"/>
<path d="M53.6961 33.0807C58.9784 33.0807 63.2605 28.7953 63.2605 23.509C63.2605 18.2227 58.9784 13.9373 53.6961 13.9373C48.4139 13.9373 44.1318 18.2227 44.1318 23.509C44.1318 28.7953 48.4139 33.0807 53.6961 33.0807Z" fill="#2F2E41"/>
<path d="M46.945 29.2645C46.945 29.2645 47.6952 37.2722 45.9449 39.5243C44.1945 41.7765 47.0701 46.1557 47.0701 46.1557L52.3211 52.4117L60.0725 48.9083L61.1977 42.4021L60.4476 37.8978C60.4476 37.8978 57.8221 35.2703 58.9473 30.5157C60.0725 25.7611 46.945 29.2645 46.945 29.2645Z" fill="#FFB9B9"/>
<path opacity="0.1" d="M46.945 29.2645C46.945 29.2645 47.6952 37.2722 45.9449 39.5243C44.1945 41.7765 47.0701 46.1557 47.0701 46.1557L52.3211 52.4117L60.0725 48.9083L61.1977 42.4021L60.4476 37.8978C60.4476 37.8978 57.8221 35.2703 58.9473 30.5157C60.0725 25.7611 46.945 29.2645 46.945 29.2645Z" fill="black"/>
<path d="M54.1967 49.2836C54.1967 49.2836 53.3215 43.9035 53.3215 42.9025C53.3215 41.9016 49.4458 41.276 49.4458 41.276C49.4458 41.276 46.4452 37.8977 45.8201 38.3982C45.195 38.8987 35.6932 45.2798 34.1929 46.1556C32.6926 47.0315 31.0673 50.7851 31.1923 51.0353C31.3174 51.2855 39.0688 67.5511 39.0688 67.5511C39.0688 67.5511 42.4445 77.5607 40.069 82.8158C37.6936 88.0708 34.693 98.4557 39.0688 100.583C43.4446 102.71 64.6987 107.339 68.5744 103.335C72.4501 99.3316 75.2006 98.2055 76.2008 98.2055C77.201 98.2055 72.0751 80.8138 73.2003 79.1873C74.3255 77.5607 72.7002 67.426 72.7002 67.426L78.4513 51.2856C78.4513 51.2856 77.9512 42.2769 66.574 40.275L59.7677 36.9724L54.1967 49.2836Z" fill="#575A89"/>
<path d="M30.8171 100.458C30.8171 100.458 30.192 106.464 30.192 108.215C30.192 109.967 27.1914 120.227 31.5673 121.478C35.9431 122.729 35.568 107.84 35.568 107.84V100.208L30.8171 100.458Z" fill="#FFB9B9"/>
<path d="M29.6914 136.742L33.3171 117.474H34.4423C35.2291 118.489 35.7451 119.688 35.9419 120.957C36.1387 122.226 36.0099 123.525 35.5675 124.731C34.0672 128.985 32.817 136.742 32.817 136.742H29.6914Z" fill="#2F2E41"/>
<path d="M45.5699 164.519C45.5699 164.519 44.7573 166.855 43.6371 170.036C43.117 171.515 42.5306 173.177 41.9267 174.873C41.5379 175.969 41.1428 177.079 40.754 178.162C40.1339 179.895 39.5313 181.559 39.0049 182.988C38.3098 184.874 37.7459 186.351 37.4434 187.041C36.0681 190.169 10.9384 185.164 8.93798 183.913C6.9376 182.661 6.43751 178.407 6.18746 172.402C6.18621 172.37 6.18495 172.339 6.18495 172.308C6.15245 171.095 6.46125 169.29 6.97762 167.172C7.23516 166.113 7.54521 164.977 7.89028 163.797C8.35287 162.214 8.87798 160.555 9.42681 158.904C11.7848 151.809 14.564 144.875 14.564 144.875C14.564 144.875 19.44 141.497 21.1903 139.245C22.9406 136.993 32.5675 135.241 32.5675 135.241C35.318 135.366 41.5692 146.001 44.0696 149.254C46.5701 152.508 45.5699 164.519 45.5699 164.519Z" fill="#3F3D56"/>
<path d="M43.6364 170.036C43.1163 171.515 42.5299 173.177 41.9261 174.873L7.88965 163.797C8.35224 162.214 8.87735 160.555 9.42618 158.904L43.6364 170.036Z" fill="#F2F2F2"/>
<path d="M40.754 178.162C40.1339 179.895 39.5313 181.559 39.0049 182.988L6.18495 172.308C6.15245 171.095 6.46125 169.29 6.97762 167.172L40.754 178.162Z" fill="#F2F2F2"/>
<path d="M31.5676 145.501C32.189 145.501 32.6928 144.997 32.6928 144.375C32.6928 143.753 32.189 143.249 31.5676 143.249C30.9462 143.249 30.4424 143.753 30.4424 144.375C30.4424 144.997 30.9462 145.501 31.5676 145.501Z" fill="#2F2E41"/>
<path d="M33.3175 146.252C33.6627 146.252 33.9426 145.972 33.9426 145.626C33.9426 145.281 33.6627 145 33.3175 145C32.9723 145 32.6924 145.281 32.6924 145.626C32.6924 145.972 32.9723 146.252 33.3175 146.252Z" fill="#2F2E41"/>
<path d="M31.5664 144.625C31.5664 144.625 34.0669 155.636 32.5666 165.395C31.0663 175.154 36.3173 184.288 36.3173 184.288" stroke="#2F2E41" stroke-width="3" stroke-miterlimit="10"/>
<path d="M33.3173 145.501C33.3173 145.501 28.4413 163.268 28.3163 165.77C28.1913 168.273 26.1909 186.165 23.6904 188.042" stroke="#2F2E41" stroke-width="3" stroke-miterlimit="10"/>
<path d="M82.7016 94.8273C82.7016 94.8273 83.4517 100.583 83.0766 101.834C82.7015 103.085 86.7023 113.971 81.3263 114.596C75.9503 115.222 77.3255 101.584 77.3255 101.584V94.8274L82.7016 94.8273Z" fill="#FFB9B9"/>
<path d="M33.0671 49.5339L31.1918 51.0353C31.1918 51.0353 28.6913 90.8234 29.3164 93.8263C29.9415 96.8292 27.066 101.083 29.5665 101.459C32.0669 101.834 35.0675 103.461 36.4428 102.46C37.818 101.459 38.0681 97.8301 38.5682 96.9543C39.0683 96.0785 39.9434 85.6935 39.9434 85.6935C39.9434 85.6935 42.5689 75.3086 40.9436 67.5511C39.3183 59.7937 37.818 51.9112 37.818 51.9112L33.0671 49.5339Z" fill="#575A89"/>
<path d="M72.6996 46.4059L78.4507 51.2856L82.8265 76.81C82.8265 76.81 85.5771 96.7041 83.4517 96.9543C81.3263 97.2046 78.0756 96.579 76.7004 96.9543C75.3251 97.3297 74.1999 96.3287 74.1999 96.3287C74.1999 96.3287 72.6996 88.3211 72.6996 88.1959C72.6996 88.0708 71.6995 78.937 71.6995 78.937L70.4492 68.6772L72.3246 57.4164L72.6996 46.4059Z" fill="#575A89"/>
<path d="M53.696 33.8939C58.4603 33.8939 62.3226 30.0287 62.3226 25.2607C62.3226 20.4926 58.4603 16.6274 53.696 16.6274C48.9316 16.6274 45.0693 20.4926 45.0693 25.2607C45.0693 30.0287 48.9316 33.8939 53.696 33.8939Z" fill="#FFB9B9"/>
<path d="M47.0732 19.9925C47.0732 19.9925 45.1205 14.9115 47.9519 13.2505L48.733 15.4978C48.733 15.4978 55.8604 11.1986 57.7154 12.1757L55.958 14.5207C55.958 14.5207 64.257 14.5207 64.8428 17.7451L61.9137 17.8429C61.9137 17.8429 65.0381 19.8948 65.1357 23.2169L58.8871 23.6078L61.9138 25.3665C61.9138 25.3665 50.5881 26.9299 47.8543 22.4352L47.0732 19.9925Z" fill="#2F2E41"/>
<path d="M45.3828 20.1934C45.3828 20.1934 47.6332 24.6977 50.6338 23.5716C53.6344 22.4455 50.6338 18.3166 50.6338 18.3166L48.6334 17.3156L45.3828 20.1934Z" fill="#2F2E41"/>
<path d="M239.441 91.2536L198.634 40.2209C196.781 41.9167 194.498 43.0703 192.035 43.5557C184.353 45.0699 176.85 39.8197 175.278 31.8291C174.736 29.1865 174.925 26.4459 175.825 23.9032C176.726 21.3604 178.303 19.1121 180.387 17.4007L166.473 6.10352e-05L87.2031 67.8003L160.172 159.054L239.441 91.2536Z" fill="#F2F2F2"/>
<path d="M192.987 153.825L189.467 157.902L199.979 166.992L203.498 162.915L192.987 153.825Z" fill="#00B9A7" fill-opacity="0.1"/>
<path d="M116.754 80.9182L113.234 84.995L125.093 95.2498L128.613 91.173L116.754 80.9182Z" fill="#00B9A7"/>
<path d="M211.98 123.46V123.776C211.973 124.57 211.95 125.36 211.912 126.147C211.228 139.609 205.425 152.3 195.692 161.618C185.959 170.936 173.034 176.176 159.565 176.264C146.096 176.352 133.103 171.282 123.249 162.092C113.395 152.902 107.427 140.288 106.567 126.836C106.495 125.719 106.459 124.594 106.459 123.46C106.44 112.524 109.832 101.854 116.161 92.9394C116.667 92.221 117.193 91.5158 117.74 90.8237C118.117 90.3424 118.504 89.8719 118.895 89.4049C127.802 78.8456 140.489 72.2003 154.235 70.8949C167.981 69.5895 181.691 73.7279 192.423 82.4222C193.058 82.9359 193.683 83.4675 194.293 84.0099C194.781 84.4445 195.261 84.8887 195.732 85.3425C205.016 94.2293 210.73 106.208 211.797 119.02C211.919 120.486 211.98 121.966 211.98 123.46Z" fill="#3F3D56"/>
<path d="M159.219 182.906C126.465 182.906 99.8184 156.239 99.8184 123.46C99.799 108.463 105.463 94.0162 115.668 83.0338L116.983 84.2556C107.087 94.906 101.594 108.916 101.613 123.46C101.613 155.248 127.455 181.11 159.219 181.11C166.937 181.136 174.58 179.598 181.687 176.587C188.795 173.577 195.22 169.157 200.574 163.594L201.862 164.844C196.341 170.58 189.716 175.138 182.388 178.242C175.059 181.346 167.177 182.933 159.219 182.906Z" fill="#00B9A7" fill-opacity="0.1"/>
<path d="M167.833 181.649H152.759V196.735H167.833V181.649Z" fill="#00B9A7" fill-opacity="0.1"/>
<path d="M0 196.691H274" stroke="#3F3D56" stroke-width="2" stroke-miterlimit="10"/>
<path d="M247.572 111.483C250.087 111.483 252.125 109.443 252.125 106.927C252.125 104.41 250.087 102.37 247.572 102.37C245.058 102.37 243.02 104.41 243.02 106.927C243.02 109.443 245.058 111.483 247.572 111.483Z" stroke="#3F3D56" stroke-width="2" stroke-miterlimit="10"/>
<path d="M117.74 90.8237C117.766 90.8346 117.79 90.8491 117.812 90.8668C118.095 91.1003 117.74 91.5493 117.783 91.9193C117.833 92.3934 118.465 92.4976 118.942 92.5443C119.419 92.5946 120.022 92.9789 119.796 93.4027C118.598 93.8158 117.384 93.4099 116.161 92.9394C109.832 101.855 106.44 112.524 106.459 123.46C106.459 124.595 106.495 125.72 106.567 126.836C106.667 126.91 106.777 126.969 106.893 127.012C107.252 127.149 107.669 127.124 107.999 127.318C108.261 127.472 108.437 127.745 108.699 127.889C109.449 128.298 110.49 127.512 111.19 128C111.37 128.165 111.542 128.34 111.703 128.525C112.349 129.085 113.411 128.708 114.158 129.128C114.639 129.397 114.886 129.936 115.145 130.425C115.787 131.646 116.828 132.846 118.203 132.943C118.636 132.923 119.071 132.937 119.502 132.986C119.926 133.083 120.342 133.453 120.274 133.88C120.155 134.616 120.518 135.421 120.421 136.157C120.245 137.504 118.339 138.093 118.178 139.44C118.177 139.737 118.16 140.033 118.127 140.328C118.041 140.68 117.776 140.967 117.682 141.319C117.503 141.983 117.98 142.648 118.501 143.093C119.025 143.542 119.649 143.93 119.936 144.555C120.238 145.22 120.091 145.992 120.188 146.714C120.403 148.291 121.763 149.458 123.163 150.212C123.612 150.4 124.01 150.69 124.326 151.06C124.685 151.581 124.649 152.267 124.771 152.888C125.065 154.408 126.343 155.661 126.379 157.21C126.404 158.312 125.794 159.311 125.428 160.349C125.051 161.437 124.939 162.599 125.101 163.74C127.148 165.477 129.323 167.056 131.608 168.463C131.733 168.279 131.824 168.075 131.877 167.86C131.921 167.621 131.891 167.376 131.792 167.155C131.692 166.934 131.528 166.749 131.321 166.624C131.707 166.478 132.058 166.253 132.351 165.963C132.495 165.815 132.591 165.626 132.624 165.421C132.657 165.217 132.627 165.007 132.538 164.821C133.17 164.9 133.92 164.939 134.336 164.454C134.67 164.066 134.648 163.485 134.515 162.993C134.333 162.514 134.213 162.014 134.157 161.505C135.62 161.577 137.087 161.528 138.543 161.358C138.332 160.648 137.853 160.047 137.207 159.684C137.868 159.573 138.467 158.783 138.675 158.147C138.855 157.498 138.865 156.814 138.704 156.161C138.654 155.993 138.647 155.815 138.682 155.643C138.789 155.416 138.975 155.235 139.207 155.137C140.298 154.508 141.389 153.881 142.48 153.255C142.674 153.157 142.852 153.027 143.004 152.87C143.345 152.465 143.295 151.858 143.119 151.358C142.943 150.859 142.663 150.388 142.595 149.864C142.394 148.294 144.073 147.167 144.64 145.687C144.833 145.096 144.937 144.48 144.949 143.858C144.996 143.19 144.999 142.418 144.49 141.991C143.998 141.578 143.234 141.671 142.72 141.287C142.25 140.935 142.089 140.256 141.575 139.972C141.109 139.713 140.527 139.879 140.007 139.756C139.095 139.544 138.521 138.492 137.588 138.395C137.064 138.338 136.468 138.596 136.037 138.291C135.657 138.018 135.642 137.476 135.571 137.016C135.443 136.3 135.1 135.64 134.586 135.125C134.073 134.61 133.415 134.264 132.699 134.135C132.157 134.049 131.569 134.081 131.106 133.783C130.639 133.481 130.427 132.917 130.058 132.497C129.469 131.825 128.536 131.585 127.664 131.38C126.479 131.103 125.296 130.826 124.114 130.547C123.486 130.396 122.675 130.317 122.334 130.87C122.233 131.08 122.163 131.304 122.126 131.535C121.998 131.949 121.742 132.313 121.395 132.573C121.048 132.834 120.628 132.978 120.195 132.986C119.898 132.478 119.417 132.105 118.852 131.944C118.483 131.882 118.119 131.796 117.761 131.685C117.575 131.594 117.408 131.465 117.273 131.307C117.138 131.149 117.036 130.965 116.974 130.766C116.912 130.568 116.892 130.358 116.914 130.151C116.935 129.944 116.999 129.744 117.101 129.563C117.304 129.198 117.383 128.777 117.324 128.363C117.265 127.95 117.072 127.567 116.774 127.275C116.171 126.732 115.299 126.599 114.488 126.653C114.276 126.19 114.632 125.669 115.012 125.331C115.396 124.997 115.859 124.667 115.942 124.164C116.074 123.374 115.066 122.774 114.301 123.007C113.537 123.244 113.049 123.988 112.726 124.721C112.569 125.153 112.355 125.563 112.09 125.938C111.955 126.124 111.77 126.269 111.557 126.356C111.345 126.444 111.112 126.471 110.885 126.434C110.253 126.272 110.012 125.522 109.872 124.889C109.648 124.045 109.535 123.174 109.535 122.3C109.54 121.417 109.891 120.571 110.511 119.943C111.556 118.981 113.164 119.074 114.574 119.229C114.423 119.027 114.351 118.777 114.37 118.526C114.39 118.275 114.501 118.039 114.682 117.864C114.871 117.696 115.097 117.577 115.343 117.517C115.588 117.457 115.844 117.457 116.089 117.519C116.514 117.607 116.897 117.836 117.176 118.169C117.578 118.658 117.693 119.322 117.995 119.875C118.3 120.432 118.982 120.906 119.538 120.608C120.023 120.349 120.098 119.681 119.979 119.146C119.857 118.614 119.603 118.094 119.646 117.548C119.728 116.51 120.809 115.881 121.76 115.454C122.711 115.026 123.798 114.448 123.949 113.413C123.956 113.212 123.995 113.013 124.064 112.824C124.169 112.655 124.316 112.517 124.491 112.422C127.265 110.586 130.09 108.726 133.263 107.724C133.428 107.67 133.446 107.727 133.615 107.688C133.852 107.551 133.694 107.174 133.467 107.023C133.241 106.872 132.94 106.754 132.882 106.488C132.843 106.294 132.958 106.1 132.987 105.903C132.994 105.783 132.972 105.664 132.923 105.555C132.874 105.446 132.798 105.351 132.704 105.278C132.609 105.205 132.498 105.156 132.38 105.136C132.263 105.116 132.142 105.125 132.028 105.163C131.773 104.825 132.276 104.434 132.685 104.319C133.91 103.983 135.167 103.778 136.436 103.708C136.582 103.684 136.732 103.709 136.863 103.78C136.956 103.87 137.011 103.992 137.017 104.122C137.023 104.251 136.98 104.378 136.895 104.477C136.722 104.669 136.531 104.843 136.324 104.997C136.119 105.198 135.971 105.451 135.899 105.729C135.827 106.007 135.833 106.299 135.915 106.574C136.579 106.912 137.297 107.26 138.033 107.142C138.765 107.023 139.415 106.197 139.07 105.54C138.751 104.926 137.785 104.786 137.62 104.114C137.426 103.327 138.539 102.627 138.288 101.858C138.18 101.52 137.843 101.319 137.584 101.079C137.28 100.779 137.073 100.395 136.991 99.9756C136.908 99.5565 136.954 99.1223 137.121 98.7296C136.701 98.803 136.269 98.7749 135.862 98.6474C135.455 98.5199 135.085 98.2969 134.781 97.9968C134.221 97.4329 133.776 96.5385 132.979 96.5672C132.251 96.5888 131.623 97.4401 130.941 97.1814C130.772 97.1168 130.596 96.9875 130.435 97.0629C130.381 97.0972 130.337 97.1431 130.304 97.1973C130.271 97.2514 130.25 97.3123 130.244 97.3754C130.072 98.2051 130.37 99.1498 129.918 99.8682C129.426 100.648 128.288 100.755 127.693 101.459C127.37 101.84 127.244 102.354 126.946 102.756C126.648 103.158 126.02 103.417 125.661 103.065C125.837 102.704 125.885 102.295 125.798 101.903C125.71 101.512 125.492 101.161 125.18 100.91C124.85 100.693 124.492 100.519 124.118 100.393C123.699 100.216 123.301 99.9942 122.93 99.7317C122.745 99.619 122.595 99.4574 122.495 99.2648C122.417 99.0225 122.427 98.7603 122.524 98.5248C122.706 98.0061 123.025 97.5467 123.448 97.1961C123.872 96.8455 124.382 96.6169 124.925 96.5349C125.399 96.4703 125.952 96.4918 126.268 96.129C126.433 95.9387 126.519 95.6477 126.763 95.5723C126.917 95.5401 127.077 95.559 127.219 95.6261C127.811 95.8345 128.4 96.0428 128.992 96.2511C129.189 96.3418 129.407 96.3778 129.623 96.3553C129.731 96.3415 129.828 96.2874 129.897 96.204C129.966 96.1206 130 96.0142 129.993 95.9063C129.936 95.6118 129.484 95.4717 129.527 95.1736C129.548 95.0762 129.599 94.988 129.674 94.9221C130.314 94.2407 131.097 93.7093 131.966 93.3659C132.835 93.0226 133.77 92.8757 134.702 92.9358C134.925 93.3058 134.573 93.7404 134.275 94.0529C133.981 94.369 133.744 94.9293 134.103 95.17C134.248 95.246 134.41 95.2831 134.573 95.2777C135.009 95.3363 135.434 95.4649 135.829 95.6585C136.443 95.9243 137.046 96.2188 137.634 96.5349C137.548 96.1498 137.563 95.7488 137.678 95.3711C137.742 95.1858 137.874 95.0312 138.046 94.9376C138.219 94.8439 138.42 94.818 138.611 94.8647C138.962 95.0012 139.142 95.4681 139.519 95.5112C140.018 95.5687 140.215 94.8288 140.007 94.369C139.799 93.9092 139.382 93.5285 139.35 93.022C139.325 92.6844 139.454 92.2641 139.185 92.0594C139.089 91.9959 138.98 91.9565 138.866 91.9444C136.612 91.5314 134.356 91.1171 132.1 90.7016C131.698 90.6262 131.12 90.6837 131.102 91.0896C131.091 91.3195 131.296 91.5457 131.206 91.7541C131.109 91.9768 130.794 91.9588 130.564 92.0378C130.391 92.1162 130.249 92.2487 130.158 92.4152C130.068 92.5818 130.034 92.7733 130.061 92.961C130.123 93.3345 130.267 93.6893 130.485 93.999C130.043 93.8158 129.379 93.7835 128.938 93.5967C128.874 93.0852 128.743 92.5841 128.55 92.1061C128.539 92.03 128.512 91.9573 128.47 91.893C128.427 91.8287 128.372 91.7745 128.306 91.7341C128.241 91.6937 128.168 91.6681 128.091 91.6592C128.015 91.6502 127.938 91.6581 127.865 91.6822C127.283 91.772 126.702 91.8582 126.12 91.948C125.974 91.955 125.835 92.0092 125.722 92.1025C125.496 92.3431 125.718 92.7275 125.711 93.0579C125.69 93.2427 125.612 93.4164 125.488 93.5547C125.364 93.6931 125.2 93.7894 125.019 93.8302C124.653 93.9044 124.276 93.8995 123.913 93.8158C123.098 93.6901 122.287 93.5644 121.473 93.4387C122.192 93.2093 122.831 92.781 123.317 92.2031C123.64 91.8223 123.813 91.1111 123.346 90.9315C123.208 90.8937 123.064 90.8827 122.923 90.8992C121.817 90.9064 120.945 89.9833 119.911 89.5918C119.586 89.4704 119.242 89.4072 118.896 89.405L117.74 90.8237Z" fill="#00B9A7" fill-opacity="0.1"/>
<path d="M211.911 126.147C211.784 126.317 211.618 126.453 211.427 126.544C211.235 126.635 211.024 126.677 210.813 126.667C209.689 126.57 209.216 124.951 208.103 124.767C208.005 124.742 207.9 124.752 207.809 124.796C207.644 124.886 207.615 125.109 207.604 125.295C207.557 126.222 207.518 127.185 207.88 128.04C208.408 129.29 209.776 130.338 209.488 131.664C207.945 130.949 207.141 129.214 206.779 127.551C206.412 125.888 206.355 124.142 205.702 122.569C205.203 123.205 204.162 122.68 203.71 122.012C203.279 121.38 203.014 120.647 202.597 120.004C202.181 119.365 201.542 118.79 200.781 118.754C199.981 118.719 199.284 119.268 198.674 119.789C198.143 120.181 197.698 120.677 197.364 121.247C196.937 122.109 197.048 123.122 197.027 124.081C197.005 125.116 196.786 126.211 196.079 126.973C195.372 127.731 194.069 127.996 193.291 127.31C192.914 126.918 192.646 126.434 192.512 125.906C191.665 123.436 190.96 120.92 190.401 118.37C190.272 118.952 189.759 119.703 189.271 119.361C189.162 119.269 189.073 119.153 189.012 119.024C188.101 117.483 186.417 116.556 184.712 115.999C183.011 115.446 181.22 115.188 179.537 114.577C178.593 114.234 177.691 113.785 176.849 113.237C176.635 113.553 176.51 113.92 176.487 114.301C176.464 114.681 176.545 115.061 176.719 115.4C176.909 115.731 177.202 115.991 177.554 116.138C177.905 116.286 178.296 116.313 178.665 116.215C179.038 116.093 179.354 115.834 179.724 115.705C180.093 115.579 180.592 115.64 180.754 115.999C180.912 116.341 180.675 116.754 180.793 117.113C180.969 117.655 181.791 117.698 182.078 118.194C182.162 118.39 182.182 118.609 182.133 118.817C182.085 119.025 181.971 119.212 181.809 119.351C181.479 119.62 181.114 119.845 180.725 120.019C179.519 120.69 178.661 121.836 177.606 122.727C176.551 123.622 175.061 124.272 173.805 123.701C174.103 122.181 172.298 121.068 171.964 119.555C171.853 119.056 171.91 118.528 171.756 118.043C171.529 117.339 170.905 116.858 170.395 116.326C169.776 115.674 169.294 114.904 168.976 114.062C168.659 113.22 168.513 112.323 168.547 111.423C168.576 110.798 168.69 110.163 168.547 109.552C168.407 108.945 167.901 108.356 167.276 108.381C165.851 108.446 164.053 108.553 163.307 107.336C163.038 106.901 162.923 106.265 163.31 105.931C163.462 105.835 163.631 105.77 163.808 105.74C163.985 105.71 164.166 105.715 164.34 105.755C165.414 105.859 166.483 105.967 167.556 106.071C168.306 106.143 169.118 106.204 169.764 105.813C170.41 105.421 170.69 104.376 170.09 103.913C169.656 103.575 168.874 103.593 168.744 103.058C168.64 102.609 169.136 102.102 168.866 101.725C168.676 101.459 168.245 101.531 167.983 101.732C167.755 101.97 167.506 102.187 167.24 102.383C166.727 102.648 166.117 102.393 165.564 102.221C165.012 102.048 164.272 102.034 164.007 102.548C163.705 103.119 164.269 103.873 163.974 104.448C163.58 105.206 162.252 104.775 161.699 105.428C161.067 106.176 162.13 107.296 161.918 108.252C161.645 108.387 161.342 108.449 161.038 108.432C160.734 108.415 160.44 108.32 160.184 108.155C159.933 107.984 159.733 107.748 159.605 107.472C159.478 107.196 159.427 106.891 159.459 106.589C159.509 106.158 159.736 105.716 159.585 105.31C159.422 104.996 159.154 104.751 158.827 104.617C157.787 104.038 156.746 103.462 155.705 102.889C155.414 103.428 155.78 104.092 156.24 104.498C156.696 104.9 157.27 105.206 157.571 105.737C157.762 106.106 157.805 106.533 157.692 106.932C157.579 107.332 157.317 107.672 156.961 107.885C156.916 107.916 156.865 107.937 156.811 107.947C156.757 107.956 156.702 107.953 156.649 107.939C156.599 107.91 156.556 107.871 156.521 107.825C156.487 107.779 156.462 107.726 156.448 107.67C155.899 106.258 155.07 104.868 153.749 104.132C152.424 103.392 150.526 103.546 149.657 104.785C149.453 105.08 149.313 105.418 149.133 105.73C148.182 107.386 146.136 108.169 144.227 108.119C144.04 108.131 143.854 108.087 143.692 107.993C143.383 107.781 143.398 107.329 143.444 106.955C143.513 106.427 143.577 105.903 143.645 105.375C143.647 105.052 143.772 104.743 143.994 104.509C144.349 104.229 144.859 104.405 145.311 104.398C145.652 104.382 145.98 104.262 146.251 104.053C146.521 103.844 146.721 103.557 146.822 103.23C146.913 102.901 146.912 102.552 146.82 102.223C146.727 101.894 146.547 101.596 146.298 101.362C146.093 101.168 145.817 100.924 145.924 100.662C145.968 100.59 146.027 100.528 146.097 100.481C146.167 100.434 146.247 100.402 146.33 100.389C147.138 100.155 147.995 100.094 148.789 99.8143C149.585 99.5377 150.357 98.9702 150.547 98.1476C150.605 97.8962 150.63 97.5909 150.856 97.4652C150.97 97.4193 151.092 97.3949 151.215 97.3933C151.646 97.3314 152.039 97.1103 152.316 96.7733C152.593 96.4363 152.734 96.0079 152.712 95.5722C153.092 95.3064 153.627 95.504 153.996 95.7877C154.363 96.0715 154.689 96.445 155.138 96.5672C155.974 96.7971 156.782 96.0535 157.65 96.0499C158.016 96.0499 158.393 96.1793 158.734 96.0535C159.082 95.9278 159.29 95.583 159.556 95.328C159.825 95.0694 160.292 94.9149 160.54 95.1915C160.468 94.6706 160.4 94.1534 160.328 93.6362C160.751 93.7427 161.191 93.7575 161.62 93.6794C162.049 93.6014 162.457 93.4323 162.815 93.1836C161.911 92.8783 161.01 92.573 160.105 92.2677C160.01 92.2442 159.923 92.1973 159.85 92.1312C159.653 91.9192 159.85 91.5888 160.008 91.3481C160.392 90.7698 160.457 89.818 159.825 89.5306C159.395 89.3331 158.903 89.5701 158.49 89.8C157.83 90.1664 157.169 90.5364 156.509 90.9027C156.448 91.2799 156.907 91.4954 157.191 91.7468C157.364 91.9002 157.486 92.1024 157.542 92.3267C157.597 92.551 157.584 92.7869 157.503 93.0034C157.422 93.22 157.278 93.407 157.089 93.5398C156.9 93.6726 156.675 93.745 156.444 93.7475C156.574 93.9175 156.665 94.1144 156.709 94.3238C156.753 94.5333 156.75 94.75 156.699 94.958C156.258 94.9903 155.813 95.0226 155.368 95.055C155.294 95.0697 155.218 95.0697 155.144 95.0549C155.07 95.0401 154.999 95.0108 154.937 94.9688C154.793 94.843 154.815 94.6204 154.779 94.4336C154.72 94.2103 154.595 94.0099 154.421 93.8582C154.247 93.7065 154.032 93.6104 153.803 93.5823C153.345 93.5308 152.882 93.5736 152.442 93.708C152.251 93.7755 152.042 93.7704 151.854 93.6936C151.747 93.6231 151.667 93.5197 151.624 93.3991C151.546 93.1528 151.533 92.8905 151.585 92.6375C151.638 92.3846 151.755 92.1495 151.926 91.9551C152.27 91.5721 152.65 91.2222 153.06 90.9099C153.988 90.0962 154.671 89.0386 155.03 87.8568C155.762 87.5479 156.52 87.1312 157.255 86.8223C157.847 86.548 158.467 86.3396 159.104 86.2009C159.703 86.1093 160.311 86.0804 160.916 86.1147C161.742 86.1291 162.571 86.1434 163.396 86.1614C164.133 86.1304 164.87 86.2364 165.568 86.4739C166.246 86.7541 166.846 87.3611 166.892 88.0938C166.906 88.1773 166.899 88.2631 166.871 88.3429C166.842 88.4227 166.794 88.494 166.731 88.55C166.636 88.6027 166.527 88.6276 166.419 88.6219C165.733 88.6434 165.442 88.8158 164.757 88.841C165.191 89.3043 165.679 89.7928 166.311 89.8754C167.424 90.0191 168.224 88.8661 168.737 87.864C168.755 88.119 168.873 88.3569 169.064 88.5266C169.255 88.6964 169.505 88.7847 169.76 88.7727C170.035 88.7254 170.298 88.6228 170.532 88.471C172.739 87.2636 175.212 86.6242 177.728 86.6104C177.703 86.4198 177.75 86.2268 177.86 86.0688C177.969 85.9109 178.133 85.7992 178.32 85.7555C178.833 85.6549 179.293 86.0967 179.54 86.5565C179.785 87.0163 179.939 87.5479 180.334 87.8927C180.725 88.2375 181.482 88.2196 181.637 87.7239C181.787 87.2461 181.288 86.8367 180.876 86.5529C180.459 86.2727 180.025 85.7519 180.305 85.3353C182.415 84.8647 184.544 84.3977 186.708 84.3044C187.076 84.3155 187.442 84.252 187.785 84.1176C187.954 84.0457 188.096 83.9198 188.186 83.7593C188.277 83.5989 188.313 83.413 188.287 83.2304C187.815 83.3407 187.321 83.3081 186.867 83.1367C186.413 82.9653 186.021 82.6628 185.739 82.2678C187.961 82.0846 190.286 81.9229 192.422 82.4222L194.292 84.0098C193.937 84.3798 193.463 84.7282 193.721 85.0982C193.806 85.1832 193.91 85.2477 194.024 85.2869C194.137 85.3261 194.259 85.3389 194.378 85.3245C194.83 85.3317 195.283 85.3424 195.731 85.3424C205.015 94.2293 210.729 106.208 211.796 119.02C211.042 118.992 210.35 119.947 210.447 120.78C210.562 121.747 211.258 122.522 211.757 123.356C211.839 123.491 211.914 123.632 211.979 123.776L211.911 126.147Z" fill="#00B9A7" fill-opacity="0.1"/>
<path d="M186.618 105.139C189.44 105.139 191.728 102.85 191.728 100.026C191.728 97.2016 189.44 94.9123 186.618 94.9123C183.796 94.9123 181.509 97.2016 181.509 100.026C181.509 102.85 183.796 105.139 186.618 105.139Z" fill="#3F3D56"/>
<path d="M203.031 90.3306C206.751 90.3306 209.766 87.3128 209.766 83.5902C209.766 79.8677 206.751 76.8499 203.031 76.8499C199.311 76.8499 196.296 79.8677 196.296 83.5902C196.296 87.3128 199.311 90.3306 203.031 90.3306Z" fill="white"/>
<path d="M203.088 74.8951C205.347 74.8671 207.526 75.7386 209.144 77.3182C210.762 78.8978 211.686 81.056 211.714 83.3183C211.742 85.5805 210.871 87.761 209.293 89.3803C208.518 90.1749 206.81 91.1728 204.514 92.2431C202.265 93.2918 199.591 94.3485 197.014 95.2941C194.44 96.2386 191.978 97.0668 190.159 97.6591C189.707 97.8061 189.296 97.9385 188.932 98.0544C189.039 97.6873 189.161 97.2718 189.297 96.816C189.844 94.9811 190.61 92.4976 191.49 89.8992C192.37 87.2977 193.36 84.5962 194.352 82.3196C195.364 79.9962 196.318 78.2623 197.093 77.4676C198.671 75.8484 200.828 74.9231 203.088 74.8951ZM206.906 87.372L206.19 86.674L206.906 87.372C207.653 86.6052 208.156 85.6339 208.352 84.5809C208.548 83.5279 208.427 82.4405 208.006 81.4561C207.584 80.4716 206.88 79.6344 205.982 79.0502C205.085 78.4661 204.034 78.1613 202.964 78.1746C201.893 78.1879 200.851 78.5186 199.968 79.1248C199.085 79.731 198.402 80.5854 198.005 81.58C197.608 82.5746 197.514 83.6646 197.736 84.7125C197.957 85.7603 198.485 86.7188 199.251 87.4669C200.278 88.47 201.662 89.0237 203.098 89.0059C204.534 88.9881 205.903 88.4003 206.906 87.372Z" fill="#00B9A7" stroke="black" stroke-width="2"/>
<path d="M216.49 66.0901C219.005 66.0901 221.043 64.0501 221.043 61.5336C221.043 59.0172 219.005 56.9772 216.49 56.9772C213.976 56.9772 211.938 59.0172 211.938 61.5336C211.938 64.0501 213.976 66.0901 216.49 66.0901Z" stroke="#3F3D56" stroke-width="2" stroke-miterlimit="10"/>
<path d="M188.737 41.1311C195.09 41.1311 200.241 35.9766 200.241 29.6181C200.241 23.2596 195.09 18.105 188.737 18.105C182.383 18.105 177.232 23.2596 177.232 29.6181C177.232 35.9766 182.383 41.1311 188.737 41.1311Z" fill="#F2F2F2"/>
<path d="M113.041 24.7114C115.556 24.7114 117.594 22.6714 117.594 20.155C117.594 17.6385 115.556 15.5985 113.041 15.5985C110.527 15.5985 108.488 17.6385 108.488 20.155C108.488 22.6714 110.527 24.7114 113.041 24.7114Z" stroke="#3F3D56" stroke-width="2" stroke-miterlimit="10"/>
</g>
<defs>
<clipPath id="clip0_281:9359">
<rect width="274" height="197" fill="white"/>
</clipPath>
</defs>
</svg>
