<svg width="286" height="249" viewBox="0 0 286 249" fill="none" xmlns="http://www.w3.org/2000/svg">
<g clip-path="url(#clip0_281:9452)">
<path d="M247.77 249C268.884 249 286 247.694 286 246.082C286 244.471 268.884 243.165 247.77 243.165C226.657 243.165 209.541 244.471 209.541 246.082C209.541 247.694 226.657 249 247.77 249Z" fill="#E6E6E6"/>
<path d="M259.498 240.475H264.928V187.621L252.587 187.375L259.498 240.475Z" fill="#A0616A"/>
<path d="M266.128 242.726C266.212 243.397 266.14 244.077 265.92 244.716C265.699 245.355 265.334 245.934 264.854 246.41C264.374 246.885 263.791 247.244 263.151 247.458C262.51 247.672 261.829 247.736 261.16 247.646L251.156 246.288C250.262 246.148 249.459 245.659 248.924 244.928C248.39 244.197 248.167 243.283 248.304 242.388C248.429 241.58 248.838 240.844 249.457 240.312C250.077 239.78 250.867 239.487 251.683 239.487H253.333L258.759 234.54C258.813 237.91 261.293 237.161 265.392 236.832L266.128 242.726Z" fill="#2F2E41"/>
<path d="M235.31 240.475H240.74V187.621L228.399 187.375L235.31 240.475Z" fill="#A0616A"/>
<path d="M241.94 242.726C242.023 243.397 241.952 244.077 241.731 244.716C241.51 245.355 241.146 245.934 240.666 246.41C240.186 246.885 239.603 247.244 238.962 247.458C238.322 247.672 237.641 247.736 236.971 247.646L226.968 246.288C226.073 246.148 225.271 245.659 224.736 244.928C224.201 244.197 223.978 243.283 224.116 242.388C224.24 241.58 224.649 240.844 225.269 240.312C225.889 239.78 226.678 239.487 227.495 239.487H229.144L234.571 234.54C234.624 237.91 237.104 237.161 241.203 236.832L241.94 242.726Z" fill="#2F2E41"/>
<path d="M262.584 162.553L258.887 172.872C258.607 173.654 258.605 174.509 258.883 175.292C259.16 176.075 259.7 176.738 260.41 177.169C260.927 177.482 261.514 177.66 262.118 177.687C262.722 177.713 263.322 177.587 263.865 177.321C264.407 177.054 264.873 176.654 265.221 176.16C265.569 175.665 265.786 175.091 265.853 174.49L267.027 164.035L275.913 134.645L268.261 130.94L262.584 162.553Z" fill="#A0616A"/>
<path d="M265.792 193.179L251.723 191.697L248.761 176.137L243.331 191.944L226.547 190.215L233.458 164.035C246.091 155.446 258.09 155.633 269.494 164.035L265.792 193.179Z" fill="#2F2E41"/>
<path d="M246.849 103.279C251.654 103.279 255.55 99.3807 255.55 94.5726C255.55 89.7644 251.654 85.8666 246.849 85.8666C242.044 85.8666 238.148 89.7644 238.148 94.5726C238.148 99.3807 242.044 103.279 246.849 103.279Z" fill="#A0616A"/>
<path d="M257.895 109.206L247.034 110.194V100.562L252.711 97.1041L257.895 109.206Z" fill="#A0616A"/>
<path d="M270.729 167.74C259.803 159.734 246.684 160.548 232.225 166.752C238.776 148.194 241.567 130.899 236.421 116.268C236.421 113.683 237.281 111.171 238.865 109.129C240.449 107.087 242.668 105.631 245.171 104.99L247.034 104.513L256.167 105.007L264.742 110.038C266.491 111.063 267.943 112.527 268.955 114.285C269.966 116.043 270.503 118.034 270.513 120.062L270.729 167.74Z" fill="#E6E6E6"/>
<path d="M228.522 160.578L224.825 170.897C224.545 171.679 224.544 172.533 224.821 173.316C225.099 174.099 225.638 174.762 226.348 175.193C226.865 175.506 227.453 175.685 228.056 175.711C228.66 175.738 229.261 175.612 229.803 175.345C230.345 175.078 230.812 174.679 231.159 174.184C231.507 173.689 231.725 173.115 231.792 172.514L232.965 162.059L241.851 132.669L234.199 128.964L228.522 160.578Z" fill="#A0616A"/>
<path d="M277.886 140.325H265.792V110.688C267.884 111.851 269.701 113.45 271.121 115.377C272.54 117.305 273.529 119.515 274.02 121.859L277.886 140.325Z" fill="#E6E6E6"/>
<path d="M243.085 134.892L229.016 129.458L235.405 112.232C236.149 110.226 237.455 108.478 239.168 107.196C240.88 105.915 242.926 105.155 245.059 105.007L243.085 134.892Z" fill="#E6E6E6"/>
<path d="M240.215 89.8588C239.684 90.1101 239.098 90.225 238.511 90.1932C237.924 90.1614 237.354 89.9839 236.852 89.6767C236.362 89.3525 235.992 88.8758 235.798 88.3202C235.605 87.7645 235.6 87.1608 235.783 86.6018C236.15 85.658 237.078 85.067 237.979 84.6052C239.966 83.5873 242.095 82.8755 244.295 82.4941C245.344 82.3125 246.454 82.2127 247.445 82.6006C247.936 82.7925 248.375 83.0965 248.862 83.2974C249.757 83.6669 250.756 83.6685 251.703 83.8689C252.673 84.0808 253.586 84.4988 254.38 85.0944C255.175 85.69 255.832 86.4493 256.308 87.3212C256.62 87.9144 256.859 88.5429 257.021 89.1933C257.477 90.9726 257.471 92.8391 257.003 94.6155C256.258 97.4295 254.362 100.015 254.533 102.921C253.131 102.104 252.474 100.441 251.303 99.3173C250.433 98.487 249.307 97.9767 248.109 97.8697C247.782 97.8826 247.458 97.8001 247.177 97.6321C246.973 97.4325 246.832 97.1773 246.771 96.8982L245.452 92.7647C245.184 91.9235 244.86 91.0095 244.101 90.5583C243.633 90.3212 243.117 90.1956 242.592 90.1914C241.338 90.1 240.078 90.1118 238.825 90.2268" fill="#2F2E41"/>
<path d="M167.396 184.42H12.8801C12.1468 184.419 11.4437 184.128 10.9252 183.609C10.4067 183.09 10.1151 182.386 10.1143 181.653V13.0186C10.1151 12.2848 10.4067 11.5813 10.9252 11.0625C11.4437 10.5437 12.1468 10.2518 12.8801 10.251H167.396C168.129 10.2518 168.832 10.5437 169.351 11.0625C169.869 11.5813 170.161 12.2848 170.162 13.0186V181.653C170.161 182.386 169.869 183.09 169.351 183.609C168.832 184.128 168.129 184.419 167.396 184.42ZM12.8801 11.358C12.4401 11.3585 12.0183 11.5336 11.7072 11.8449C11.396 12.1562 11.2211 12.5783 11.2206 13.0186V181.653C11.2211 182.093 11.396 182.515 11.7072 182.826C12.0183 183.138 12.4401 183.313 12.8801 183.313H167.396C167.836 183.313 168.258 183.138 168.569 182.826C168.88 182.515 169.055 182.093 169.055 181.653V13.0186C169.055 12.5783 168.88 12.1562 168.569 11.8449C168.258 11.5336 167.836 11.3585 167.396 11.358H12.8801Z" fill="#E6E6E6"/>
<path d="M59.5859 142.297C58.5526 142.297 57.5293 142.5 56.5745 142.895C55.6197 143.29 54.7521 143.87 54.0212 144.6C53.2904 145.331 52.7106 146.199 52.315 147.154C51.9194 148.109 51.7158 149.133 51.7158 150.167C51.7158 151.201 51.9194 152.225 52.315 153.18C52.7106 154.135 53.2904 155.003 54.0212 155.733C54.7521 156.464 55.6197 157.044 56.5745 157.439C57.5293 157.834 58.5526 158.037 59.5859 158.037H120.688C121.721 158.037 122.745 157.834 123.7 157.439C124.654 157.044 125.522 156.464 126.253 155.733C126.984 155.003 127.563 154.135 127.959 153.18C128.355 152.225 128.558 151.201 128.558 150.167C128.558 149.133 128.355 148.109 127.959 147.154C127.563 146.199 126.984 145.331 126.253 144.6C125.522 143.87 124.654 143.29 123.7 142.895C122.745 142.5 121.721 142.297 120.688 142.297H59.5859Z" fill="#E6E6E6"/>
<path d="M75.0136 119.116C77.0183 119.116 78.6435 117.489 78.6435 115.484C78.6435 113.478 77.0183 111.851 75.0136 111.851C73.0089 111.851 71.3838 113.478 71.3838 115.484C71.3838 117.489 73.0089 119.116 75.0136 119.116Z" fill="#E6E6E6"/>
<path d="M59.8886 119.116C61.8933 119.116 63.5185 117.489 63.5185 115.484C63.5185 113.478 61.8933 111.851 59.8886 111.851C57.8839 111.851 56.2588 113.478 56.2588 115.484C56.2588 117.489 57.8839 119.116 59.8886 119.116Z" fill="#E6E6E6"/>
<path d="M44.7646 119.116C46.7693 119.116 48.3944 117.489 48.3944 115.484C48.3944 113.478 46.7693 111.851 44.7646 111.851C42.7599 111.851 41.1348 113.478 41.1348 115.484C41.1348 117.489 42.7599 119.116 44.7646 119.116Z" fill="#E6E6E6"/>
<path d="M135.511 107.614C137.515 107.614 139.141 105.988 139.141 103.982C139.141 101.976 137.515 100.35 135.511 100.35C133.506 100.35 131.881 101.976 131.881 103.982C131.881 105.988 133.506 107.614 135.511 107.614Z" fill="#E6E6E6"/>
<path d="M120.387 107.614C122.391 107.614 124.017 105.988 124.017 103.982C124.017 101.976 122.391 100.35 120.387 100.35C118.382 100.35 116.757 101.976 116.757 103.982C116.757 105.988 118.382 107.614 120.387 107.614Z" fill="#00B9A7"/>
<path d="M105.262 107.614C107.266 107.614 108.892 105.988 108.892 103.982C108.892 101.976 107.266 100.35 105.262 100.35C103.257 100.35 101.632 101.976 101.632 103.982C101.632 105.988 103.257 107.614 105.262 107.614Z" fill="#00B9A7"/>
<path d="M90.1376 107.614C92.1424 107.614 93.7675 105.988 93.7675 103.982C93.7675 101.976 92.1424 100.35 90.1376 100.35C88.1329 100.35 86.5078 101.976 86.5078 103.982C86.5078 105.988 88.1329 107.614 90.1376 107.614Z" fill="#00B9A7"/>
<path d="M75.0136 107.614C77.0183 107.614 78.6435 105.988 78.6435 103.982C78.6435 101.976 77.0183 100.35 75.0136 100.35C73.0089 100.35 71.3838 101.976 71.3838 103.982C71.3838 105.988 73.0089 107.614 75.0136 107.614Z" fill="#E6E6E6"/>
<path d="M59.8886 107.614C61.8933 107.614 63.5185 105.988 63.5185 103.982C63.5185 101.976 61.8933 100.35 59.8886 100.35C57.8839 100.35 56.2588 101.976 56.2588 103.982C56.2588 105.988 57.8839 107.614 59.8886 107.614Z" fill="#E6E6E6"/>
<path d="M44.7646 107.614C46.7693 107.614 48.3944 105.988 48.3944 103.982C48.3944 101.976 46.7693 100.35 44.7646 100.35C42.7599 100.35 41.1348 101.976 41.1348 103.982C41.1348 105.988 42.7599 107.614 44.7646 107.614Z" fill="#E6E6E6"/>
<path d="M135.511 96.1124C137.515 96.1124 139.141 94.4863 139.141 92.4804C139.141 90.4744 137.515 88.8483 135.511 88.8483C133.506 88.8483 131.881 90.4744 131.881 92.4804C131.881 94.4863 133.506 96.1124 135.511 96.1124Z" fill="#E6E6E6"/>
<path d="M120.387 96.1124C122.391 96.1124 124.017 94.4863 124.017 92.4804C124.017 90.4744 122.391 88.8483 120.387 88.8483C118.382 88.8483 116.757 90.4744 116.757 92.4804C116.757 94.4863 118.382 96.1124 120.387 96.1124Z" fill="#E6E6E6"/>
<path d="M105.262 96.1124C107.266 96.1124 108.892 94.4863 108.892 92.4804C108.892 90.4744 107.266 88.8483 105.262 88.8483C103.257 88.8483 101.632 90.4744 101.632 92.4804C101.632 94.4863 103.257 96.1124 105.262 96.1124Z" fill="#E6E6E6"/>
<path d="M90.1376 96.1124C92.1424 96.1124 93.7675 94.4863 93.7675 92.4804C93.7675 90.4744 92.1424 88.8483 90.1376 88.8483C88.1329 88.8483 86.5078 90.4744 86.5078 92.4804C86.5078 94.4863 88.1329 96.1124 90.1376 96.1124Z" fill="#E6E6E6"/>
<path d="M75.0136 96.1124C77.0183 96.1124 78.6435 94.4863 78.6435 92.4804C78.6435 90.4744 77.0183 88.8483 75.0136 88.8483C73.0089 88.8483 71.3838 90.4744 71.3838 92.4804C71.3838 94.4863 73.0089 96.1124 75.0136 96.1124Z" fill="#00B9A7"/>
<path d="M59.8886 96.1124C61.8933 96.1124 63.5185 94.4863 63.5185 92.4804C63.5185 90.4744 61.8933 88.8483 59.8886 88.8483C57.8839 88.8483 56.2588 90.4744 56.2588 92.4804C56.2588 94.4863 57.8839 96.1124 59.8886 96.1124Z" fill="#00B9A7"/>
<path d="M44.7646 96.1124C46.7693 96.1124 48.3944 94.4863 48.3944 92.4804C48.3944 90.4744 46.7693 88.8483 44.7646 88.8483C42.7599 88.8483 41.1348 90.4744 41.1348 92.4804C41.1348 94.4863 42.7599 96.1124 44.7646 96.1124Z" fill="#00B9A7"/>
<path d="M135.511 84.6107C137.515 84.6107 139.141 82.9845 139.141 80.9786C139.141 78.9726 137.515 77.3465 135.511 77.3465C133.506 77.3465 131.881 78.9726 131.881 80.9786C131.881 82.9845 133.506 84.6107 135.511 84.6107Z" fill="#E6E6E6"/>
<path d="M120.387 84.6107C122.391 84.6107 124.017 82.9845 124.017 80.9786C124.017 78.9726 122.391 77.3465 120.387 77.3465C118.382 77.3465 116.757 78.9726 116.757 80.9786C116.757 82.9845 118.382 84.6107 120.387 84.6107Z" fill="#E6E6E6"/>
<path d="M105.262 84.6107C107.266 84.6107 108.892 82.9845 108.892 80.9786C108.892 78.9726 107.266 77.3465 105.262 77.3465C103.257 77.3465 101.632 78.9726 101.632 80.9786C101.632 82.9845 103.257 84.6107 105.262 84.6107Z" fill="#E6E6E6"/>
<path d="M90.1376 84.6107C92.1424 84.6107 93.7675 82.9845 93.7675 80.9786C93.7675 78.9726 92.1424 77.3465 90.1376 77.3465C88.1329 77.3465 86.5078 78.9726 86.5078 80.9786C86.5078 82.9845 88.1329 84.6107 90.1376 84.6107Z" fill="#E6E6E6"/>
<path d="M75.0136 84.6107C77.0183 84.6107 78.6435 82.9845 78.6435 80.9786C78.6435 78.9726 77.0183 77.3465 75.0136 77.3465C73.0089 77.3465 71.3838 78.9726 71.3838 80.9786C71.3838 82.9845 73.0089 84.6107 75.0136 84.6107Z" fill="#E6E6E6"/>
<path d="M59.8886 84.6107C61.8933 84.6107 63.5185 82.9845 63.5185 80.9786C63.5185 78.9726 61.8933 77.3465 59.8886 77.3465C57.8839 77.3465 56.2588 78.9726 56.2588 80.9786C56.2588 82.9845 57.8839 84.6107 59.8886 84.6107Z" fill="#E6E6E6"/>
<path d="M44.7646 84.6107C46.7693 84.6107 48.3944 82.9845 48.3944 80.9786C48.3944 78.9726 46.7693 77.3465 44.7646 77.3465C42.7599 77.3465 41.1348 78.9726 41.1348 80.9786C41.1348 82.9845 42.7599 84.6107 44.7646 84.6107Z" fill="#E6E6E6"/>
<path d="M135.511 73.1092C137.515 73.1092 139.141 71.483 139.141 69.4771C139.141 67.4711 137.515 65.845 135.511 65.845C133.506 65.845 131.881 67.4711 131.881 69.4771C131.881 71.483 133.506 73.1092 135.511 73.1092Z" fill="#E6E6E6"/>
<path d="M120.387 73.1092C122.391 73.1092 124.017 71.483 124.017 69.4771C124.017 67.4711 122.391 65.845 120.387 65.845C118.382 65.845 116.757 67.4711 116.757 69.4771C116.757 71.483 118.382 73.1092 120.387 73.1092Z" fill="#E6E6E6"/>
<path d="M105.262 73.1092C107.266 73.1092 108.892 71.483 108.892 69.4771C108.892 67.4711 107.266 65.845 105.262 65.845C103.257 65.845 101.632 67.4711 101.632 69.4771C101.632 71.483 103.257 73.1092 105.262 73.1092Z" fill="#00B9A7"/>
<path d="M90.1376 73.1092C92.1424 73.1092 93.7675 71.483 93.7675 69.4771C93.7675 67.4711 92.1424 65.845 90.1376 65.845C88.1329 65.845 86.5078 67.4711 86.5078 69.4771C86.5078 71.483 88.1329 73.1092 90.1376 73.1092Z" fill="#00B9A7"/>
<path d="M75.0136 73.1092C77.0183 73.1092 78.6435 71.483 78.6435 69.4771C78.6435 67.4711 77.0183 65.845 75.0136 65.845C73.0089 65.845 71.3838 67.4711 71.3838 69.4771C71.3838 71.483 73.0089 73.1092 75.0136 73.1092Z" fill="#00B9A7"/>
<path d="M59.8886 73.1092C61.8933 73.1092 63.5185 71.483 63.5185 69.4771C63.5185 67.4711 61.8933 65.845 59.8886 65.845C57.8839 65.845 56.2588 67.4711 56.2588 69.4771C56.2588 71.483 57.8839 73.1092 59.8886 73.1092Z" fill="#E6E6E6"/>
<path d="M44.7646 73.1092C46.7693 73.1092 48.3944 71.483 48.3944 69.4771C48.3944 67.4711 46.7693 65.845 44.7646 65.845C42.7599 65.845 41.1348 67.4711 41.1348 69.4771C41.1348 71.483 42.7599 73.1092 44.7646 73.1092Z" fill="#E6E6E6"/>
<path d="M62.6599 37.3721C62.0846 37.3815 61.536 37.6169 61.1325 38.0273C60.729 38.4378 60.5029 38.9904 60.5029 39.5662C60.5029 40.1419 60.729 40.6946 61.1325 41.105C61.536 41.5155 62.0846 41.7508 62.6599 41.7603H117.639C117.927 41.7653 118.213 41.7135 118.481 41.6077C118.749 41.502 118.994 41.3444 119.201 41.144C119.408 40.9436 119.574 40.7042 119.689 40.4397C119.804 40.1751 119.865 39.8906 119.87 39.6022C119.875 39.3139 119.822 39.0275 119.716 38.7593C119.61 38.4911 119.453 38.2465 119.252 38.0393C119.052 37.8322 118.812 37.6667 118.548 37.5522C118.283 37.4377 117.999 37.3765 117.711 37.3721C117.687 37.3717 117.663 37.3717 117.639 37.3721H62.6599Z" fill="#3F3D56"/>
<path d="M130.107 36.7612C130.067 36.8013 130.035 36.8488 130.013 36.9012C129.991 36.9536 129.98 37.0098 129.98 37.0665C129.98 37.1232 129.991 37.1793 130.013 37.2317C130.035 37.2841 130.067 37.3317 130.107 37.3718L131.959 39.2252H127.391C127.277 39.2252 127.167 39.2707 127.086 39.3517C127.005 39.4326 126.96 39.5425 126.96 39.657C126.96 39.7715 127.005 39.8813 127.086 39.9623C127.167 40.0432 127.277 40.0887 127.391 40.0887H131.959L130.107 41.9422C130.067 41.9823 130.035 42.0299 130.013 42.0822C129.992 42.1346 129.98 42.1908 129.98 42.2475C129.98 42.3042 129.992 42.3603 130.013 42.4127C130.035 42.4651 130.067 42.5127 130.107 42.5528C130.147 42.5929 130.194 42.6247 130.247 42.6464C130.299 42.6681 130.355 42.6792 130.412 42.6792C130.468 42.6792 130.525 42.6681 130.577 42.6464C130.629 42.6247 130.677 42.5929 130.717 42.5528L133.306 39.9623C133.387 39.8813 133.432 39.7715 133.432 39.657C133.432 39.5425 133.387 39.4326 133.306 39.3517L130.717 36.7612C130.677 36.7211 130.629 36.6893 130.577 36.6676C130.525 36.6459 130.468 36.6347 130.412 36.6347C130.355 36.6347 130.299 36.6459 130.247 36.6676C130.194 36.6893 130.147 36.7211 130.107 36.7612Z" fill="#E6E6E6"/>
<path d="M50.1692 36.7612C50.2093 36.8013 50.2411 36.8489 50.2628 36.9012C50.2845 36.9536 50.2956 37.0098 50.2956 37.0665C50.2956 37.1232 50.2845 37.1793 50.2628 37.2317C50.2411 37.2841 50.2093 37.3317 50.1692 37.3718L48.3169 39.2252H52.8845C52.9989 39.2252 53.1087 39.2707 53.1896 39.3517C53.2705 39.4326 53.316 39.5425 53.316 39.657C53.316 39.7715 53.2705 39.8813 53.1896 39.9623C53.1087 40.0432 52.9989 40.0887 52.8845 40.0887H48.3169L50.1692 41.9422C50.2501 42.0231 50.2956 42.133 50.2956 42.2475C50.2956 42.362 50.2502 42.4718 50.1692 42.5528C50.0883 42.6337 49.9786 42.6792 49.8641 42.6792C49.7497 42.6792 49.6399 42.6337 49.559 42.5528L46.9701 39.9623C46.8892 39.8813 46.8438 39.7715 46.8438 39.657C46.8438 39.5425 46.8892 39.4326 46.9701 39.3517L49.559 36.7612C49.5991 36.7211 49.6467 36.6893 49.699 36.6676C49.7514 36.6459 49.8075 36.6347 49.8641 36.6347C49.9208 36.6347 49.9769 36.6459 50.0292 36.6676C50.0816 36.6893 50.1292 36.7211 50.1692 36.7612Z" fill="#E6E6E6"/>
<path d="M12.6388 25.2933C10.1391 25.2933 7.69548 24.5516 5.61704 23.1619C3.53861 21.7723 1.91867 19.7972 0.962074 17.4863C0.00547642 15.1754 -0.244814 12.6326 0.242856 10.1794C0.730525 7.72619 1.93425 5.47278 3.70181 3.70412C5.46938 1.93545 7.72138 0.730981 10.1731 0.243008C12.6247 -0.244965 15.166 0.00547771 17.4754 0.962671C19.7848 1.91986 21.7587 3.54082 23.1475 5.62054C24.5363 7.70027 25.2775 10.1454 25.2775 12.6466C25.2738 15.9996 23.9409 19.2141 21.5715 21.585C19.2021 23.9559 15.9896 25.2895 12.6388 25.2933V25.2933Z" fill="#00B9A7"/>
<path d="M17.6259 11.3991H13.8857V7.65659C13.8857 7.32572 13.7544 7.00841 13.5206 6.77445C13.2867 6.54049 12.9696 6.40906 12.639 6.40906C12.3083 6.40906 11.9912 6.54049 11.7574 6.77445C11.5236 7.00841 11.3922 7.32572 11.3922 7.65659V11.3991H7.652C7.32135 11.3991 7.00424 11.5306 6.77043 11.7645C6.53663 11.9985 6.40527 12.3158 6.40527 12.6466C6.40527 12.9775 6.53663 13.2948 6.77043 13.5288C7.00424 13.7627 7.32135 13.8941 7.652 13.8941H11.3922V17.6367C11.3922 17.9676 11.5236 18.2849 11.7574 18.5188C11.9912 18.7528 12.3083 18.8842 12.639 18.8842C12.9696 18.8842 13.2867 18.7528 13.5206 18.5188C13.7544 18.2849 13.8857 17.9676 13.8857 17.6367V13.8941H17.6259C17.9565 13.8941 18.2736 13.7627 18.5075 13.5288C18.7413 13.2948 18.8726 12.9775 18.8726 12.6466C18.8726 12.3158 18.7413 11.9985 18.5075 11.7645C18.2736 11.5306 17.9565 11.3991 17.6259 11.3991Z" fill="white"/>
</g>
<defs>
<clipPath id="clip0_281:9452">
<rect width="286" height="249" fill="white"/>
</clipPath>
</defs>
</svg>
