<svg width="24" height="24" viewBox="0 0 24 24" fill="none" xmlns="http://www.w3.org/2000/svg">
<g clip-path="url(#clip0_399:4696)">
<path d="M13.0547 7.68164H14.5547L14.5547 7.67549L13.0547 7.68164ZM3.35156 8.38477H4.85158L4.85155 8.37772L3.35156 8.38477ZM8.18555 19.7578V21.2578H11.065L9.41477 18.8982L8.18555 19.7578ZM10.2422 14.1943L11.1703 15.3727L12.8204 14.0731L11.0556 12.9341L10.2422 14.1943ZM16.5967 13.0752C19.4626 13.0752 21.6475 10.5811 21.6475 7.66406H18.6475C18.6475 9.1591 17.5803 10.0752 16.5967 10.0752V13.0752ZM21.6475 7.66406C21.6475 4.75562 19.4126 2.3584 16.5967 2.3584V5.3584C17.6128 5.3584 18.6475 6.26586 18.6475 7.66406H21.6475ZM16.5967 2.3584C13.7816 2.3584 11.5428 4.79157 11.5547 7.68779L14.5547 7.67549C14.549 6.28265 15.5973 5.3584 16.5967 5.3584V2.3584ZM11.5547 7.68164C11.5547 10.5807 13.7304 13.0752 16.5967 13.0752V10.0752C15.6134 10.0752 14.5547 9.15949 14.5547 7.68164H11.5547ZM6.43652 13.2773C9.05991 13.2773 11.0303 10.9904 11.0303 8.36719H8.03027C8.03027 9.57601 7.17056 10.2773 6.43652 10.2773V13.2773ZM11.0303 8.36719C11.0303 5.7257 8.9923 3.55371 6.43652 3.55371V6.55371C7.20302 6.55371 8.03027 7.24696 8.03027 8.36719H11.0303ZM6.43652 3.55371C3.86893 3.55371 1.83925 5.76589 1.85158 8.39181L4.85155 8.37772C4.8463 7.2595 5.68185 6.55371 6.43652 6.55371V3.55371ZM1.85156 8.38477C1.85156 10.9928 3.82414 13.2773 6.43652 13.2773V10.2773C5.70906 10.2773 4.85156 9.5736 4.85156 8.38477H1.85156ZM1.59375 21.2578H8.18555V18.2578H1.59375V21.2578ZM9.41477 18.8982C9.35718 18.8158 9.2125 18.4112 9.52163 17.583C9.80709 16.8182 10.389 15.9881 11.1703 15.3727L9.31407 13.0159C8.10906 13.965 7.19242 15.2443 6.71104 16.5339C6.25332 17.7602 6.07348 19.3551 6.95632 20.6175L9.41477 18.8982ZM11.0556 12.9341C9.86127 12.1631 8.32432 11.6133 6.43652 11.6133V14.6133C7.71279 14.6133 8.68952 14.9775 9.42874 15.4546L11.0556 12.9341ZM6.43652 11.6133C1.82159 11.6133 -1.53223 15.0411 -1.53223 18.3867H1.46777C1.46777 16.9687 3.19404 14.6133 6.43652 14.6133V11.6133ZM-1.53223 18.3867C-1.53223 19.0595 -1.35871 19.8871 -0.671545 20.51C-0.0175954 21.1027 0.829909 21.2578 1.59375 21.2578V18.2578C1.39664 18.2578 1.29477 18.2363 1.25836 18.2257C1.22831 18.217 1.27505 18.2254 1.34318 18.2872C1.37576 18.3167 1.40459 18.3508 1.42778 18.3865C1.45058 18.4217 1.46323 18.4511 1.46953 18.469C1.48073 18.5007 1.46777 18.4837 1.46777 18.3867H-1.53223ZM11.1211 21.249H22.0723V18.249H11.1211V21.249ZM22.0723 21.249C22.8855 21.249 23.7527 21.1383 24.442 20.6639C25.2632 20.0988 25.5234 19.2517 25.5234 18.501H22.5234C22.5234 18.553 22.5149 18.51 22.5543 18.4222C22.6006 18.3194 22.6751 18.2381 22.7413 18.1925C22.7927 18.1572 22.7917 18.1759 22.6743 18.2011C22.5571 18.2262 22.3654 18.249 22.0723 18.249V21.249ZM25.5234 18.501C25.5234 16.7826 24.4787 15.0525 22.9708 13.8109C21.4157 12.5305 19.2223 11.6309 16.5967 11.6309V14.6309C18.5238 14.6309 20.0438 15.2869 21.0639 16.1269C22.1311 17.0056 22.5234 17.9606 22.5234 18.501H25.5234ZM16.5967 11.6309C13.9672 11.6309 11.7734 12.5301 10.2188 13.8113C8.71093 15.0539 7.66992 16.784 7.66992 18.501H10.6699C10.6699 17.9591 11.0615 17.0042 12.1267 16.1265C13.145 15.2872 14.6646 14.6309 16.5967 14.6309V11.6309ZM7.66992 18.501C7.66992 19.2517 7.93021 20.0988 8.75133 20.6639C9.44063 21.1383 10.3079 21.249 11.1211 21.249V18.249C10.828 18.249 10.6362 18.2262 10.5191 18.2011C10.4017 18.1759 10.4007 18.1572 10.452 18.1925C10.5182 18.2381 10.5928 18.3194 10.639 18.4222C10.6785 18.51 10.6699 18.553 10.6699 18.501H7.66992Z" fill="black"/>
</g>
<defs>
<clipPath id="clip0_399:4696">
<rect width="24" height="24" fill="white"/>
</clipPath>
</defs>
</svg>
